<svg width="150" height="195" viewBox="0 0 150 195" xmlns="http://www.w3.org/2000/svg" xmlns:xlink="http://www.w3.org/1999/xlink"><title>liga_a_1</title><defs><path id="a" d="M80.27 15.234v151.172l69.724-45.855L150 15.235z"/><path id="c" d="M14.063 0h66.21v77.3h-66.21z"/><path id="e" d="M0 77h81v117.225L0 141.02z"/></defs><g fill="none" fill-rule="evenodd"><g><mask id="b" fill="#fff"><use xlink:href="#a"/></mask><use fill="#FFF" xlink:href="#a"/><path d="M107.227 121.083H95.456l30.07-35.837H113.75l30.07-35.838h18.296l-30.07 35.838h11.773l-30.07 35.837h11.773l-30.07 35.837H77.157l30.07-35.837zm18.298-35.837h6.522zM113.75 49.408h11.773l-30.07 35.838H77.157l30.07-35.838H95.457l30.07-35.837h18.295L113.75 49.41zm-43.12 0H58.86L88.93 13.57h18.294L77.154 49.41H70.63zM168.64 13.57h.004v14.027l-18.3 21.81H132.048l30.07-35.836h6.522zm0 71.676h.004V99.27l-18.3 21.812H132.048l30.07-35.836h6.522zM52.332 156.92h-11.77l30.07-35.837h18.296l-30.07 35.837H52.33zm91.49-35.837h18.296l-30.07 35.837H113.75l30.07-35.837zM97.08 156.92h11.77l-30.07 35.837H60.484l30.07-35.837h6.525z" fill="#FF1653" mask="url(#b)"/><mask id="d" fill="#fff"><use xlink:href="#c"/></mask><use fill="#FFF" xlink:href="#c"/><path d="M50.997 48.97h12.276v6.137h-6.138V76.26h-6.138V48.97zM44.86 36.692h36.014v6.138H44.86V77.34h-6.14V36.693h6.14zM32.582 24.417h48.454v6.138H32.583V77.48h-6.138V24.418h6.138zM20.307 12H80.91v6.136H20.308v59.767H14.17V12h6.138zM1.893-.135H83.69v6.138H8.03v71.3H1.894V-.135z" fill="#0534FA" mask="url(#d)"/><mask id="f" fill="#fff"><use xlink:href="#e"/></mask><use fill="#000" xlink:href="#e"/><path d="M-10.547 190.672V77H0v113.672h-10.547zm22.266 0V77h10.546v113.672H11.72zm23.436 0V77h10.547v113.672H35.156zm22.266 0V77H67.97v113.672H57.42zm23.437 0V77h10.546v113.672H80.86z" fill="#FF1653" mask="url(#f)"/><path fill="#0534FA" d="M50.39 49.22v56.816h.003l29.293 19.355 29.296-19.354h.002V49.22"/><path d="M69.8 88.764c-.024 2.744 2.56 4.518 5.868 4.546 3.07.028 5.993-.785 8.534-2.895l.053-5.715c-1.652-.397-4.166-.876-6.452-.895-4.017-.035-7.968 1.226-8.002 4.96m26.774 3.707c.572.005 1.217-.06 1.864-.26l-.058 6.303c-1.58.54-3.59.938-5.522.92-3.51-.03-6.15-1.3-7.558-3.805-3.39 2.533-7.342 4.023-12.426 3.978-6.445-.056-11.997-3.706-11.936-10.288.078-8.452 8.34-11.012 15.214-10.952 2.72.025 5.725.396 8.155.972l.012-1.177c.03-3.326-2.67-5.635-8.042-5.682-4.726-.04-8.963 1.17-12.196 2.39l.076-8.314c2.802-.877 8.042-2.147 13.34-2.102 10.313.092 16.863 4.235 16.76 15.18l-.097 10.6c-.016 1.732 1.126 2.226 2.414 2.238" fill="#FFF"/></g></g></svg>
