<?xml version="1.0" encoding="utf-8"?>
<!-- Generator: Adobe Illustrator 16.0.0, SVG Export Plug-In . SVG Version: 6.00 Build 0)  -->
<!DOCTYPE svg PUBLIC "-//W3C//DTD SVG 1.1//EN" "http://www.w3.org/Graphics/SVG/1.1/DTD/svg11.dtd">
<svg version="1.1" id="Слой_1" xmlns="http://www.w3.org/2000/svg" xmlns:xlink="http://www.w3.org/1999/xlink" x="0px" y="0px"
	 width="331.3px" height="139.7px" viewBox="0 0 331.3 139.7" enable-background="new 0 0 331.3 139.7" xml:space="preserve">
<g>
	<g>
		<path fill="#ffffff" d="M9.4,66.7c0-0.7,0.2-1.2,0.6-1.7c0.4-0.4,0.9-0.6,1.7-0.7h3.9c0.4,0,0.8,0,1.2,0c0.4,0,0.7,0.1,1,0.2
			c0.3,0.1,0.6,0.3,0.8,0.6c0.2,0.3,0.4,0.7,0.5,1.2l0.5,2.7c1.3-1.7,2.8-3,4.4-4c1.6-1,3.6-1.5,6-1.5c2.6,0,5.1,0.5,7.4,1.6
			c2.3,1,4.2,2.5,5.9,4.3c1.7,1.8,3,4,3.9,6.4c0.9,2.4,1.4,5.1,1.4,7.8c0,2.8-0.5,5.5-1.4,7.9c-0.9,2.5-2.2,4.6-3.9,6.4
			c-1.7,1.8-3.7,3.3-6,4.3c-2.3,1-4.8,1.6-7.5,1.6c-1,0-2-0.1-2.9-0.3c-0.9-0.2-1.7-0.5-2.5-0.9c-0.8-0.4-1.5-0.8-2.2-1.3
			c-0.7-0.5-1.2-1-1.8-1.6v22c0,0.7-0.2,1.3-0.6,1.7c-0.4,0.4-1,0.7-1.8,0.7h-6c-0.7,0-1.3-0.2-1.8-0.7c-0.5-0.4-0.8-1-0.8-1.7V66.7
			z M19.4,83.6c0,1.4,0.2,2.7,0.7,3.9c0.5,1.2,1.1,2.3,2,3.2c0.8,0.9,1.8,1.6,2.9,2.2c1.1,0.5,2.3,0.8,3.5,0.8
			c1.2,0,2.4-0.3,3.4-0.8c1.1-0.5,2-1.2,2.8-2.2c0.8-0.9,1.4-2,1.9-3.2c0.5-1.2,0.7-2.5,0.7-3.9c0-1.4-0.2-2.6-0.7-3.8
			c-0.5-1.2-1.1-2.3-1.9-3.1c-0.8-0.9-1.8-1.6-2.8-2.1c-1.1-0.5-2.2-0.8-3.4-0.8S26,74.1,25,74.6c-1.1,0.5-2,1.2-2.9,2.1
			c-0.8,0.9-1.5,1.9-2,3.1C19.6,81,19.4,82.2,19.4,83.6z"/>
		<path fill="#ffffff" d="M52.8,84.2c0-2.8,0.5-5.5,1.6-7.9c1-2.5,2.5-4.6,4.3-6.4s4-3.2,6.4-4.2c2.4-1,5.1-1.6,7.9-1.6
			c2.8,0,5.4,0.5,7.8,1.6c2.4,1,4.6,2.5,6.4,4.2s3.3,3.9,4.3,6.4c1,2.5,1.6,5.1,1.6,7.9c0,2.8-0.5,5.5-1.6,7.9
			c-1.1,2.5-2.5,4.6-4.3,6.4c-1.8,1.8-3.9,3.2-6.4,4.3s-5,1.6-7.8,1.6c-2.8,0-5.4-0.5-7.9-1.6c-2.4-1-4.6-2.5-6.4-4.3
			c-1.8-1.8-3.3-3.9-4.3-6.4C53.3,89.7,52.8,87.1,52.8,84.2z M64,84.2c0,1.4,0.2,2.6,0.6,3.8c0.4,1.2,1,2.2,1.8,3.1
			c0.8,0.9,1.7,1.6,2.8,2.1c1.1,0.5,2.3,0.7,3.7,0.7c1.3,0,2.5-0.2,3.6-0.7c1.1-0.5,2-1.2,2.7-2.1c0.7-0.9,1.3-1.9,1.7-3.1
			c0.4-1.2,0.6-2.4,0.6-3.8c0-1.3-0.2-2.5-0.6-3.7c-0.4-1.2-1-2.2-1.7-3.1c-0.7-0.9-1.7-1.6-2.7-2.1c-1.1-0.5-2.3-0.8-3.6-0.8
			c-1.4,0-2.6,0.3-3.7,0.8c-1.1,0.5-2,1.2-2.8,2.1c-0.8,0.9-1.4,1.9-1.8,3.1C64.2,81.7,64,82.9,64,84.2z"/>
		<path fill="#ffffff" d="M97.9,98.3c-0.3-0.4-0.6-0.7-0.8-1.1c-0.2-0.3-0.3-0.8-0.3-1.3c0-0.2,0-0.5,0.1-0.8
			c0.1-0.3,0.4-0.7,0.9-1.1l4.2-3.5h0c-0.1,0-0.1,0,0-0.1c0.1,0,0.2-0.1,0.3-0.1c0.1,0,0.3-0.1,0.5-0.1c0.2,0,0.3-0.1,0.4-0.1
			c0.4,0,0.7,0.1,1,0.4c0.3,0.3,0.6,0.5,0.8,0.9c0.4,0.6,1,1.2,1.6,1.6c0.6,0.4,1.3,0.7,2,1c0.7,0.3,1.4,0.4,2,0.5
			c0.7,0.1,1.2,0.2,1.7,0.2c0.5,0,0.9-0.1,1.5-0.2c0.5-0.1,1.1-0.3,1.5-0.5c0.5-0.2,0.9-0.5,1.2-0.9c0.3-0.3,0.5-0.8,0.5-1.2
			c0-0.5-0.2-1-0.5-1.4c-0.3-0.4-0.8-0.8-1.4-1.1c-0.6-0.3-1.3-0.6-2-0.9c-0.8-0.3-1.6-0.5-2.5-0.8c-4.2-1.2-7.4-2.8-9.6-4.9
			c-2.2-2.1-3.3-4.7-3.3-7.7c0-1.7,0.4-3.2,1.1-4.6c0.7-1.4,1.7-2.6,3-3.6c1.3-1,2.8-1.8,4.6-2.4c1.8-0.6,3.7-0.8,5.9-0.8
			c5.4,0,9.8,2.1,13.2,6.4c0.2,0.2,0.3,0.4,0.3,0.7c0.1,0.2,0.1,0.4,0.1,0.6c-0.1,0.3-0.2,0.6-0.3,0.8c-0.2,0.2-0.4,0.5-0.8,0.8h0
			l-0.1,0.1l-0.1,0.1l-0.4,0.4l-1.1,0.9c-0.7,0.6-1.3,1.1-1.8,1.5c-0.5,0.4-0.9,0.6-1.4,0.6c-0.5,0-0.8-0.1-1-0.3
			c-0.2-0.2-0.5-0.5-0.8-0.8c-0.3-0.4-0.8-0.8-1.2-1.1c-0.5-0.3-1-0.7-1.5-0.9c-0.5-0.3-1-0.5-1.6-0.7c-0.5-0.2-1-0.2-1.5-0.2
			c-1,0-1.8,0.1-2.4,0.4c-0.6,0.2-1,0.5-1.3,0.9c-0.3,0.3-0.5,0.7-0.6,1c-0.1,0.4-0.1,0.6-0.1,0.9c0,0.5,0.2,1,0.5,1.4
			c0.3,0.4,0.7,0.7,1.2,1c0.5,0.3,1,0.5,1.7,0.7c0.6,0.2,1.2,0.3,1.8,0.5l0.7,0.2c2,0.6,3.9,1.2,5.6,1.9c1.7,0.7,3.2,1.6,4.4,2.6
			s2.2,2.2,2.8,3.5c0.7,1.3,1,2.9,1,4.7c0,1.9-0.4,3.7-1.2,5.2c-0.8,1.5-2,2.8-3.4,3.9c-1.4,1-3.1,1.9-5.1,2.4
			c-1.9,0.6-4,0.8-6.3,0.8c-1.3,0-2.6-0.1-3.8-0.4c-1.3-0.3-2.5-0.6-3.7-1.2c-1.2-0.5-2.3-1.2-3.3-1.9
			C99.6,100.2,98.7,99.3,97.9,98.3z"/>
		<path fill="#ffffff" d="M131.7,53.5c0-0.9,0.2-1.7,0.5-2.5c0.3-0.8,0.8-1.5,1.4-2.1c0.6-0.6,1.2-1,2-1.4c0.8-0.3,1.6-0.5,2.5-0.5
			c0.9,0,1.7,0.2,2.5,0.5c0.8,0.3,1.5,0.8,2,1.4c0.6,0.6,1,1.3,1.3,2.1c0.3,0.8,0.5,1.6,0.5,2.5c0,0.9-0.2,1.7-0.5,2.5
			c-0.3,0.8-0.8,1.4-1.3,2c-0.6,0.6-1.2,1-2,1.4c-0.8,0.3-1.6,0.5-2.5,0.5c-0.9,0-1.7-0.2-2.5-0.5c-0.8-0.3-1.5-0.8-2-1.4
			c-0.6-0.6-1-1.2-1.4-2C131.9,55.2,131.7,54.4,131.7,53.5z M143.8,101.5c0,0.7-0.2,1.2-0.6,1.6c-0.4,0.4-1,0.6-1.7,0.6h-6.6
			c-1.5,0-2.2-0.7-2.2-2.2V66.7c0-0.6,0.2-1.1,0.6-1.6c0.4-0.4,0.9-0.7,1.6-0.7h6.6c0.5,0,1,0.2,1.6,0.6c0.5,0.4,0.8,1,0.8,1.6
			V101.5z"/>
		<path fill="#ffffff" d="M153.7,53.8c0-0.6,0.2-1.2,0.6-1.6c0.4-0.4,1-0.7,1.8-0.8l6.1-0.9c0.1,0,0.2,0,0.3,0c0.1,0,0.2,0,0.3,0
			c0.8,0,1.3,0.2,1.5,0.7c0.3,0.5,0.4,1,0.4,1.7v11.6h4.8c0.7,0,1.2,0.2,1.6,0.6c0.4,0.4,0.6,1,0.6,1.8v4.4c0,0.9-0.2,1.5-0.6,1.9
			c-0.4,0.4-0.9,0.6-1.6,0.6h-4.8v27.6c0,0.8-0.2,1.4-0.7,1.8s-1.1,0.6-1.9,0.6h-6.1c-1.6,0-2.3-0.8-2.3-2.4V73.7h-2.2
			c-1.6,0-2.4-0.8-2.4-2.5v-4.4c0-1.6,0.8-2.4,2.4-2.4h2.2V53.8z"/>
		<path fill="#ffffff" d="M176.4,53.5c0-0.9,0.2-1.7,0.5-2.5c0.3-0.8,0.8-1.5,1.4-2.1c0.6-0.6,1.2-1,2-1.4c0.8-0.3,1.6-0.5,2.5-0.5
			c0.9,0,1.7,0.2,2.5,0.5c0.8,0.3,1.5,0.8,2,1.4c0.6,0.6,1,1.3,1.3,2.1c0.3,0.8,0.5,1.6,0.5,2.5c0,0.9-0.2,1.7-0.5,2.5
			c-0.3,0.8-0.8,1.4-1.3,2s-1.2,1-2,1.4c-0.8,0.3-1.6,0.5-2.5,0.5c-0.9,0-1.7-0.2-2.5-0.5c-0.8-0.3-1.5-0.8-2-1.4s-1-1.2-1.4-2
			C176.6,55.2,176.4,54.4,176.4,53.5z M188.5,101.5c0,0.7-0.2,1.2-0.6,1.6c-0.4,0.4-1,0.6-1.7,0.6h-6.6c-1.5,0-2.2-0.7-2.2-2.2V66.7
			c0-0.6,0.2-1.1,0.6-1.6c0.4-0.4,0.9-0.7,1.6-0.7h6.6c0.5,0,1,0.2,1.6,0.6c0.5,0.4,0.8,1,0.8,1.6V101.5z"/>
		<path fill="#ffffff" d="M211.7,88.3l7.8-22c0.5-1.2,1.4-1.8,2.7-1.8h7.1c0.8,0,1.3,0.2,1.6,0.5c0.3,0.3,0.5,0.8,0.5,1.4
			c0,0.2,0,0.4-0.1,0.7c-0.1,0.2-0.1,0.4-0.1,0.4l-13.8,33.8c-0.3,0.6-0.6,1.2-1.1,1.7c-0.5,0.5-1,0.8-1.7,0.8h-5.9
			c-0.5,0-0.9-0.1-1.2-0.3c-0.3-0.2-0.6-0.4-0.9-0.8c-0.2-0.3-0.4-0.7-0.6-1.1c-0.2-0.4-0.3-0.8-0.5-1.2L199,84.3
			c-1.1-2.7-2.2-5.5-3.4-8.4c-1.1-2.8-2.3-5.6-3.4-8.2h0c-0.1-0.1-0.1-0.4-0.2-0.7c-0.1-0.3-0.1-0.6-0.1-0.8c0-1.1,0.7-1.7,2.1-1.7
			h7.3c0.7,0,1.2,0.2,1.6,0.5c0.4,0.3,0.7,0.8,0.9,1.3L211.7,88.3z"/>
		<path fill="#ffffff" d="M250.5,95.1c1.1,0,2.3-0.2,3.6-0.6c1.3-0.4,2.5-1,3.6-1.9c0.4-0.2,0.7-0.4,1-0.6c0.3-0.2,0.6-0.2,0.9-0.2
			c0.3,0,0.6,0.1,0.8,0.2c0.3,0.1,0.5,0.4,0.8,0.7l2.9,4c0.3,0.5,0.5,0.9,0.5,1.4c0,0.4-0.1,0.8-0.4,1.2c-0.3,0.4-0.6,0.7-1,1
			c-0.8,0.6-1.7,1.2-2.7,1.7c-1,0.5-2.1,0.9-3.2,1.3c-1.1,0.4-2.2,0.6-3.4,0.8c-1.1,0.2-2.3,0.3-3.4,0.3c-2.7,0-5.2-0.5-7.6-1.6
			c-2.4-1-4.4-2.5-6.2-4.3c-1.8-1.8-3.2-4-4.2-6.4c-1-2.5-1.5-5.1-1.5-7.9c0-2.7,0.5-5.3,1.5-7.8c1-2.5,2.3-4.6,4-6.5
			c1.7-1.8,3.7-3.3,6.1-4.4c2.3-1.1,4.8-1.6,7.5-1.6c2.6,0,4.9,0.5,7.2,1.5c2.2,1,4.2,2.3,5.9,4c1.7,1.7,3,3.7,4,5.9
			c1,2.3,1.5,4.7,1.5,7.4v0.2c0,1-0.1,1.8-0.4,2.5c-0.2,0.7-0.6,1.2-1.1,1.5c-0.5,0.4-1.1,0.6-1.8,0.8c-0.7,0.1-1.6,0.2-2.6,0.2
			h-21.2c0.3,1.1,0.7,2.1,1.3,3c0.6,0.9,1.3,1.6,2.1,2.3c0.8,0.6,1.7,1.1,2.6,1.4C248.6,94.9,249.5,95.1,250.5,95.1z M258.5,80
			c-0.2-0.9-0.5-1.8-1-2.6c-0.5-0.8-1.1-1.5-1.9-2.1c-0.7-0.6-1.6-1.1-2.5-1.4c-0.9-0.3-1.9-0.5-2.9-0.5c-0.9,0-1.8,0.2-2.7,0.5
			c-0.9,0.3-1.7,0.7-2.5,1.3c-0.7,0.6-1.4,1.3-1.9,2.1c-0.5,0.8-0.9,1.8-1.1,2.8H258.5z"/>
	</g>
	<g>
		<path fill="#FBB615" d="M287.7,8.6c5.2,0,9.5,4.3,9.5,9.5c0,20.7-16.9,37.6-37.6,37.6c-5.2,0-9.5-4.3-9.5-9.5h9.5
			c15.5,0,28.1-12.6,28.1-28.1L287.7,8.6z"/>
		<path fill="#ED3426" d="M315.9,55.7c-20.7,0-37.6-16.9-37.6-37.6c0-5.2,4.3-9.5,9.5-9.5v9.5c0,15.5,12.6,28.1,28.1,28.1l9.5,0
			C325.3,51.5,321.1,55.7,315.9,55.7z"/>
		<path fill="#0078BE" d="M287.7,83.9c-5.2,0-9.5-4.3-9.5-9.5c0-20.7,16.9-37.6,37.6-37.6c5.2,0,9.5,4.3,9.5,9.5h-9.5
			c-15.5,0-28.1,12.6-28.1,28.1L287.7,83.9z"/>
		<path fill="#26AD4B" d="M259.6,36.8c20.7,0,37.6,16.9,37.6,37.6c0,5.2-4.3,9.5-9.5,9.5v-9.5c0-15.5-12.6-28.1-28.1-28.1l-9.5,0
			C250.1,41,254.4,36.8,259.6,36.8z"/>
		<path fill="#F7941E" d="M293.3,34.9c-3.5-4.7-5.5-10.5-5.5-16.7V8.6h0h0l0,9.5c0,6.3-2.1,12.1-5.5,16.8c1.5,3,3.4,5.7,5.5,8.2
			C289.9,40.6,291.8,37.9,293.3,34.9z"/>
		<path fill="#8DC63F" d="M276.4,40.8c-4.7,3.5-10.5,5.5-16.7,5.5h-9.5l0,0l0,0l9.5,0c6.3,0,12.1,2.1,16.8,5.5
			c3-1.5,5.7-3.4,8.2-5.5C282.1,44.2,279.3,42.3,276.4,40.8z"/>
		<path fill="#2BB673" d="M282.2,57.6c3.5,4.7,5.5,10.5,5.5,16.7v9.5l0,0l0,0l0-9.5c0-6.3,2.1-12.1,5.5-16.8c-1.5-3-3.4-5.7-5.5-8.2
			C285.5,51.9,283.7,54.6,282.2,57.6z"/>
		<path fill="#3C61AD" d="M299.1,51.9c4.7-3.5,10.5-5.5,16.7-5.5h9.5l0,0l0,0l-9.5,0c-6.3,0-12.1-2.1-16.8-5.5
			c-3,1.5-5.7,3.4-8.2,5.5C293.3,48.6,296.1,50.4,299.1,51.9z"/>
	</g>
	<g>
		<g>
			<path fill="#ffffff" d="M92.2,118.7c0,0.7,0.1,1.4,0.4,2c0.3,0.6,0.7,1.2,1.1,1.7c0.5,0.5,1,0.8,1.7,1.1c0.6,0.3,1.3,0.4,2,0.4
				c0.7,0,1.4-0.1,2-0.4s1.2-0.6,1.6-1c0.1-0.1,0.2-0.1,0.2-0.1s0.2,0.1,0.2,0.2c0.1,0.1,0.1,0.2,0,0.3s-0.1,0.1-0.2,0.2v0
				c-0.5,0.5-1.2,0.9-1.8,1.2c-0.7,0.3-1.4,0.4-2.2,0.4c-0.8,0-1.6-0.2-2.3-0.5c-0.7-0.3-1.4-0.7-1.9-1.3s-1-1.2-1.3-1.9
				c-0.3-0.7-0.5-1.5-0.5-2.3s0.1-1.6,0.4-2.3c0.3-0.7,0.7-1.4,1.2-1.9s1.1-1,1.8-1.3c0.7-0.3,1.4-0.5,2.1-0.5c0.7,0,1.4,0.1,2,0.4
				c0.6,0.3,1.2,0.7,1.7,1.2s0.9,1.1,1.2,1.8c0.3,0.7,0.5,1.4,0.5,2.2c0,0,0,0.1,0,0.1c0,0,0,0,0,0.1c0,0.2-0.1,0.3-0.3,0.3H92.2z
				 M97.1,113.3c-0.6,0-1.2,0.1-1.8,0.4s-1,0.6-1.5,1c-0.4,0.4-0.8,0.9-1.1,1.5c-0.3,0.6-0.5,1.2-0.5,1.9h9.7
				c-0.1-0.7-0.2-1.3-0.5-1.8c-0.3-0.6-0.6-1.1-1.1-1.5c-0.4-0.4-0.9-0.8-1.5-1S97.7,113.3,97.1,113.3z"/>
			<path fill="#ffffff" d="M109,124.3c-0.1,0-0.1,0-0.2,0s-0.1-0.1-0.2-0.2l-4.9-10.8c0-0.1,0-0.1,0-0.2c0-0.1,0-0.1,0.1-0.2
				s0.2-0.1,0.3-0.1c0.1,0,0.2,0.1,0.3,0.2l4.6,10.2l4.6-10.2c0.1-0.1,0.1-0.2,0.3-0.2c0.1,0,0.2,0,0.3,0.1s0.1,0.2,0.1,0.2
				c0,0.1,0,0.1,0,0.2c-0.8,1.8-1.5,3.3-2.1,4.5s-1,2.2-1.4,3.1c-0.4,0.8-0.6,1.4-0.8,1.9c-0.2,0.4-0.3,0.8-0.4,1s-0.2,0.3-0.2,0.4
				C109.2,124.2,109.1,124.3,109,124.3z"/>
			<path fill="#ffffff" d="M115.6,118.7c0,0.7,0.1,1.4,0.4,2c0.3,0.6,0.7,1.2,1.1,1.7c0.5,0.5,1,0.8,1.7,1.1c0.6,0.3,1.3,0.4,2,0.4
				c0.7,0,1.4-0.1,2-0.4s1.2-0.6,1.6-1c0.1-0.1,0.2-0.1,0.2-0.1s0.2,0.1,0.2,0.2c0.1,0.1,0.1,0.2,0,0.3s-0.1,0.1-0.2,0.2v0
				c-0.5,0.5-1.2,0.9-1.8,1.2c-0.7,0.3-1.4,0.4-2.2,0.4c-0.8,0-1.6-0.2-2.3-0.5c-0.7-0.3-1.4-0.7-1.9-1.3s-1-1.2-1.3-1.9
				c-0.3-0.7-0.5-1.5-0.5-2.3s0.1-1.6,0.4-2.3c0.3-0.7,0.7-1.4,1.2-1.9s1.1-1,1.8-1.3c0.7-0.3,1.4-0.5,2.1-0.5c0.7,0,1.4,0.1,2,0.4
				c0.6,0.3,1.2,0.7,1.7,1.2s0.9,1.1,1.2,1.8c0.3,0.7,0.5,1.4,0.5,2.2c0,0,0,0.1,0,0.1c0,0,0,0,0,0.1c0,0.2-0.1,0.3-0.3,0.3H115.6z
				 M120.4,113.3c-0.6,0-1.2,0.1-1.8,0.4s-1,0.6-1.5,1c-0.4,0.4-0.8,0.9-1.1,1.5c-0.3,0.6-0.5,1.2-0.5,1.9h9.7
				c-0.1-0.7-0.2-1.3-0.5-1.8c-0.3-0.6-0.6-1.1-1.1-1.5c-0.4-0.4-0.9-0.8-1.5-1S121,113.3,120.4,113.3z"/>
			<path fill="#ffffff" d="M129.5,124c0,0.2-0.1,0.3-0.4,0.3c-0.2,0-0.3-0.1-0.3-0.3v-10.8c0-0.2,0.1-0.3,0.3-0.3
				c0.2,0,0.4,0.1,0.4,0.3v1.8c0.2-0.4,0.4-0.7,0.7-1c0.3-0.3,0.6-0.6,1-0.8c0.4-0.2,0.8-0.4,1.2-0.5c0.4-0.1,0.9-0.2,1.3-0.2
				c0.7,0,1.3,0.1,1.9,0.3c0.6,0.2,1.1,0.5,1.5,1c0.4,0.4,0.8,0.9,1,1.5c0.2,0.6,0.4,1.2,0.4,2v6.6c0,0.2-0.1,0.3-0.3,0.3
				c-0.2,0-0.3-0.1-0.3-0.3v-6.7c0-0.6-0.1-1.2-0.3-1.7c-0.2-0.5-0.5-0.9-0.9-1.3c-0.4-0.4-0.8-0.6-1.3-0.8c-0.5-0.2-1-0.3-1.6-0.3
				c-0.6,0-1.2,0.1-1.7,0.3c-0.5,0.2-1,0.5-1.3,0.8c-0.4,0.4-0.7,0.8-0.9,1.3c-0.2,0.5-0.3,1-0.3,1.6V124z"/>
			<path fill="#ffffff" d="M146,123.6c0.1,0,0.2,0,0.3,0.1s0.1,0.1,0.1,0.2c0,0.2-0.1,0.3-0.4,0.3c-0.5,0-1,0-1.4-0.1
				c-0.4-0.1-0.7-0.3-1-0.5c-0.3-0.3-0.5-0.6-0.6-1.1c-0.1-0.5-0.2-1.1-0.2-1.8v-7.3H141c-0.2,0-0.3-0.1-0.3-0.3
				c0-0.2,0.1-0.4,0.3-0.4h1.8v-3.6c0-0.2,0.1-0.4,0.4-0.4c0.2,0,0.3,0.1,0.3,0.4v3.6h2.6c0.1,0,0.2,0,0.3,0.1s0.1,0.2,0.1,0.3
				c0,0.1,0,0.2-0.1,0.2c-0.1,0.1-0.2,0.1-0.3,0.1h-2.6v7.5c0,0.5,0.1,1,0.2,1.3c0.1,0.3,0.3,0.6,0.5,0.8c0.2,0.2,0.5,0.3,0.8,0.4
				C145.3,123.6,145.6,123.6,146,123.6z"/>
			<path fill="#ffffff" d="M155.9,113.1c0-0.2,0.1-0.4,0.3-0.4c0.2,0,0.4,0.1,0.4,0.4v2.9c0.1-0.5,0.4-1,0.7-1.5
				c0.3-0.4,0.7-0.8,1.2-1.1c0.4-0.3,0.9-0.6,1.5-0.7c0.5-0.2,1.1-0.3,1.6-0.3c0.8,0,1.5,0.2,2.2,0.5c0.7,0.3,1.3,0.7,1.8,1.3
				c0.5,0.5,0.9,1.2,1.2,1.9c0.3,0.7,0.4,1.5,0.4,2.3s-0.1,1.6-0.4,2.3c-0.3,0.7-0.7,1.4-1.2,1.9s-1.1,1-1.8,1.3
				c-0.7,0.3-1.4,0.5-2.2,0.5c-0.5,0-1.1-0.1-1.6-0.3s-1-0.4-1.5-0.7c-0.5-0.3-0.8-0.7-1.2-1.1c-0.3-0.4-0.6-0.9-0.7-1.5v7.6
				c0,0.2-0.1,0.3-0.4,0.3c-0.2,0-0.3-0.1-0.3-0.3V113.1z M156.6,118.5c0,0.7,0.1,1.4,0.4,2.1c0.3,0.6,0.6,1.2,1.1,1.7
				c0.5,0.5,1,0.9,1.6,1.2c0.6,0.3,1.2,0.4,1.9,0.4c0.7,0,1.3-0.1,1.9-0.4c0.6-0.3,1.1-0.7,1.6-1.2c0.4-0.5,0.8-1.1,1.1-1.7
				c0.3-0.6,0.4-1.3,0.4-2.1c0-0.7-0.1-1.4-0.4-2.1c-0.3-0.7-0.6-1.2-1.1-1.7c-0.4-0.5-1-0.9-1.6-1.2c-0.6-0.3-1.3-0.4-1.9-0.4
				c-0.7,0-1.3,0.1-1.9,0.4c-0.6,0.3-1.1,0.7-1.6,1.2c-0.4,0.5-0.8,1.1-1.1,1.7C156.8,117,156.6,117.7,156.6,118.5z"/>
			<path fill="#ffffff" d="M176.8,113.5c0,0,0.1,0.1,0.1,0.1s0.1,0.1,0.1,0.2c0,0.1,0,0.2-0.1,0.3c-0.1,0.1-0.1,0.1-0.2,0.1
				c-0.1,0-0.2,0-0.3-0.1c-0.3-0.2-0.7-0.4-1.1-0.5s-0.8-0.2-1.2-0.2c-0.5,0-1,0.1-1.4,0.3c-0.4,0.2-0.8,0.5-1.1,0.9
				c-0.3,0.4-0.5,0.8-0.7,1.3s-0.3,1-0.3,1.5l-0.1,6.6c0,0.2-0.1,0.3-0.4,0.3c-0.2,0-0.3-0.1-0.3-0.3v-10.8c0-0.2,0.1-0.3,0.3-0.3
				c0.2,0,0.4,0.1,0.4,0.3v1.9c0.1-0.4,0.3-0.7,0.5-1c0.2-0.3,0.5-0.6,0.8-0.8c0.3-0.2,0.6-0.4,1-0.5c0.4-0.1,0.7-0.2,1.1-0.2
				c0.5,0,1,0.1,1.5,0.2C176,113,176.4,113.3,176.8,113.5z"/>
			<path fill="#ffffff" d="M178.3,118.6c0-0.8,0.2-1.6,0.5-2.3c0.3-0.7,0.7-1.4,1.3-1.9s1.2-1,1.9-1.3c0.7-0.3,1.5-0.5,2.3-0.5
				c0.8,0,1.6,0.2,2.3,0.5c0.7,0.3,1.4,0.7,1.9,1.3s1,1.2,1.3,1.9c0.3,0.7,0.5,1.5,0.5,2.3c0,0.8-0.2,1.6-0.5,2.3s-0.7,1.4-1.3,1.9
				s-1.2,1-1.9,1.3c-0.7,0.3-1.5,0.5-2.3,0.5c-0.8,0-1.6-0.2-2.3-0.5c-0.7-0.3-1.4-0.7-1.9-1.3s-1-1.2-1.3-1.9
				C178.5,120.2,178.3,119.4,178.3,118.6z M179,118.6c0,0.7,0.1,1.4,0.4,2.1c0.3,0.6,0.7,1.2,1.2,1.7c0.5,0.5,1,0.9,1.7,1.1
				c0.6,0.3,1.3,0.4,2.1,0.4s1.4-0.1,2.1-0.4c0.6-0.3,1.2-0.7,1.7-1.1c0.5-0.5,0.9-1,1.1-1.7c0.3-0.6,0.4-1.3,0.4-2.1
				s-0.1-1.4-0.4-2.1c-0.3-0.6-0.7-1.2-1.1-1.7c-0.5-0.5-1-0.9-1.7-1.1c-0.6-0.3-1.3-0.4-2.1-0.4s-1.4,0.1-2.1,0.4
				c-0.6,0.3-1.2,0.7-1.7,1.1c-0.5,0.5-0.9,1-1.2,1.7C179.1,117.2,179,117.8,179,118.6z"/>
			<path fill="#ffffff" d="M203.9,123.9c0,0.2-0.1,0.4-0.3,0.4c-0.2,0-0.4-0.1-0.4-0.4V121c-0.2,0.5-0.4,1-0.7,1.5
				c-0.3,0.4-0.7,0.8-1.2,1.1s-0.9,0.6-1.5,0.7s-1.1,0.3-1.6,0.3c-0.8,0-1.5-0.2-2.2-0.5c-0.7-0.3-1.3-0.7-1.8-1.3s-0.9-1.2-1.2-1.9
				c-0.3-0.7-0.4-1.5-0.4-2.4c0-0.8,0.1-1.6,0.4-2.3c0.3-0.7,0.7-1.4,1.2-1.9s1.1-1,1.8-1.3c0.7-0.3,1.4-0.5,2.2-0.5
				c0.5,0,1.1,0.1,1.6,0.3s1,0.4,1.5,0.7c0.5,0.3,0.8,0.7,1.2,1.1c0.3,0.4,0.6,0.9,0.7,1.5v-8.9c0-0.2,0.1-0.3,0.4-0.3
				c0.2,0,0.3,0.1,0.3,0.3V123.9z M203.2,118.6c0-0.7-0.1-1.4-0.4-2.1s-0.6-1.2-1.1-1.7c-0.5-0.5-1-0.9-1.6-1.2
				c-0.6-0.3-1.2-0.4-1.9-0.4c-0.7,0-1.3,0.1-1.9,0.4c-0.6,0.3-1.1,0.7-1.6,1.2c-0.4,0.5-0.8,1.1-1.1,1.7s-0.4,1.3-0.4,2.1
				c0,0.7,0.1,1.4,0.4,2.1s0.6,1.2,1.1,1.7c0.4,0.5,1,0.9,1.6,1.2s1.3,0.4,1.9,0.4c0.7,0,1.3-0.1,1.9-0.4s1.1-0.7,1.6-1.2
				c0.4-0.5,0.8-1.1,1.1-1.7S203.2,119.3,203.2,118.6z"/>
			<path fill="#ffffff" d="M207,113.1c0-0.2,0.1-0.3,0.4-0.3c0.2,0,0.3,0.1,0.3,0.3v6.7c0,0.6,0.1,1.1,0.3,1.6
				c0.2,0.5,0.5,0.9,0.9,1.3c0.4,0.4,0.8,0.6,1.3,0.8c0.5,0.2,1,0.3,1.6,0.3c0.6,0,1.1-0.1,1.6-0.3s0.9-0.5,1.3-0.9
				c0.4-0.4,0.7-0.8,0.9-1.3c0.2-0.5,0.3-1,0.3-1.6v-6.7c0-0.2,0.1-0.3,0.3-0.3c0.2,0,0.4,0.1,0.4,0.3V124c0,0.2-0.1,0.3-0.4,0.3
				c-0.2,0-0.3-0.1-0.3-0.3v-1.8c-0.2,0.4-0.4,0.7-0.7,1c-0.3,0.3-0.6,0.6-1,0.8c-0.4,0.2-0.7,0.4-1.2,0.5c-0.4,0.1-0.8,0.2-1.3,0.2
				c-0.7,0-1.3-0.1-1.9-0.4s-1.1-0.6-1.5-1c-0.4-0.4-0.8-0.9-1-1.5c-0.3-0.6-0.4-1.2-0.4-1.9V113.1z"/>
			<path fill="#ffffff" d="M229.2,114.6c-0.5-0.4-1-0.8-1.6-1s-1.3-0.4-1.9-0.4c-0.7,0-1.4,0.1-2.1,0.4c-0.6,0.3-1.2,0.7-1.7,1.1
				c-0.5,0.5-0.9,1-1.1,1.7c-0.3,0.6-0.4,1.3-0.4,2.1s0.1,1.4,0.4,2.1c0.3,0.6,0.7,1.2,1.1,1.7c0.5,0.5,1,0.9,1.7,1.1
				c0.6,0.3,1.3,0.4,2.1,0.4c0.7,0,1.4-0.1,2-0.4s1.2-0.6,1.6-1c0.1-0.1,0.2-0.1,0.2-0.1c0.1,0,0.2,0,0.2,0.1
				c0.1,0.1,0.1,0.2,0.1,0.2c0,0.1-0.1,0.2-0.2,0.3c-0.6,0.5-1.2,0.9-1.8,1.1c-0.7,0.3-1.4,0.4-2.2,0.4c-0.8,0-1.6-0.2-2.3-0.5
				c-0.7-0.3-1.4-0.7-1.9-1.3s-1-1.2-1.3-1.9c-0.3-0.7-0.5-1.5-0.5-2.3c0-0.8,0.2-1.6,0.5-2.3c0.3-0.7,0.7-1.4,1.3-1.9
				s1.2-1,1.9-1.3c0.7-0.3,1.5-0.5,2.3-0.5c0.8,0,1.5,0.1,2.1,0.4s1.2,0.6,1.8,1.1c0.1,0.1,0.2,0.2,0.2,0.3c0,0.1,0,0.2-0.1,0.2
				s-0.1,0.1-0.2,0.1C229.4,114.7,229.3,114.7,229.2,114.6z"/>
			<path fill="#ffffff" d="M237.2,123.6c0.1,0,0.2,0,0.3,0.1s0.1,0.1,0.1,0.2c0,0.2-0.1,0.3-0.4,0.3c-0.5,0-1,0-1.4-0.1
				c-0.4-0.1-0.7-0.3-1-0.5c-0.3-0.3-0.5-0.6-0.6-1.1c-0.1-0.5-0.2-1.1-0.2-1.8v-7.3h-1.8c-0.2,0-0.3-0.1-0.3-0.3
				c0-0.2,0.1-0.4,0.3-0.4h1.8v-3.6c0-0.2,0.1-0.4,0.4-0.4c0.2,0,0.3,0.1,0.3,0.4v3.6h2.6c0.1,0,0.2,0,0.3,0.1s0.1,0.2,0.1,0.3
				c0,0.1,0,0.2-0.1,0.2c-0.1,0.1-0.2,0.1-0.3,0.1h-2.6v7.5c0,0.5,0.1,1,0.2,1.3c0.1,0.3,0.3,0.6,0.5,0.8c0.2,0.2,0.5,0.3,0.8,0.4
				C236.4,123.6,236.8,123.6,237.2,123.6z"/>
			<path fill="#ffffff" d="M239.7,109.4c0-0.2,0.1-0.4,0.2-0.5s0.3-0.2,0.5-0.2s0.4,0.1,0.5,0.2s0.2,0.3,0.2,0.5s-0.1,0.4-0.2,0.5
				c-0.1,0.1-0.3,0.2-0.5,0.2s-0.4-0.1-0.5-0.2C239.7,109.7,239.7,109.6,239.7,109.4z M240,113.1c0-0.2,0.1-0.3,0.4-0.3
				c0.2,0,0.3,0.1,0.3,0.3V124c0,0.2-0.1,0.3-0.3,0.3c-0.2,0-0.4-0.1-0.4-0.3V113.1z"/>
			<path fill="#ffffff" d="M243.8,118.6c0-0.8,0.2-1.6,0.5-2.3c0.3-0.7,0.7-1.4,1.3-1.9s1.2-1,1.9-1.3c0.7-0.3,1.5-0.5,2.3-0.5
				c0.8,0,1.6,0.2,2.3,0.5c0.7,0.3,1.4,0.7,1.9,1.3s1,1.2,1.3,1.9c0.3,0.7,0.5,1.5,0.5,2.3c0,0.8-0.2,1.6-0.5,2.3s-0.7,1.4-1.3,1.9
				s-1.2,1-1.9,1.3c-0.7,0.3-1.5,0.5-2.3,0.5c-0.8,0-1.6-0.2-2.3-0.5c-0.7-0.3-1.4-0.7-1.9-1.3s-1-1.2-1.3-1.9
				C243.9,120.2,243.8,119.4,243.8,118.6z M244.5,118.6c0,0.7,0.1,1.4,0.4,2.1c0.3,0.6,0.7,1.2,1.2,1.7c0.5,0.5,1,0.9,1.7,1.1
				c0.6,0.3,1.3,0.4,2.1,0.4s1.4-0.1,2.1-0.4c0.6-0.3,1.2-0.7,1.7-1.1c0.5-0.5,0.9-1,1.1-1.7c0.3-0.6,0.4-1.3,0.4-2.1
				s-0.1-1.4-0.4-2.1c-0.3-0.6-0.7-1.2-1.1-1.7c-0.5-0.5-1-0.9-1.7-1.1c-0.6-0.3-1.3-0.4-2.1-0.4s-1.4,0.1-2.1,0.4
				c-0.6,0.3-1.2,0.7-1.7,1.1c-0.5,0.5-0.9,1-1.2,1.7C244.6,117.2,244.5,117.8,244.5,118.6z"/>
			<path fill="#ffffff" d="M259.3,124c0,0.2-0.1,0.3-0.4,0.3c-0.2,0-0.3-0.1-0.3-0.3v-10.8c0-0.2,0.1-0.3,0.3-0.3
				c0.2,0,0.4,0.1,0.4,0.3v1.8c0.2-0.4,0.4-0.7,0.7-1c0.3-0.3,0.6-0.6,1-0.8c0.4-0.2,0.8-0.4,1.2-0.5c0.4-0.1,0.9-0.2,1.3-0.2
				c0.7,0,1.3,0.1,1.9,0.3c0.6,0.2,1.1,0.5,1.5,1c0.4,0.4,0.8,0.9,1,1.5c0.2,0.6,0.4,1.2,0.4,2v6.6c0,0.2-0.1,0.3-0.3,0.3
				c-0.2,0-0.3-0.1-0.3-0.3v-6.7c0-0.6-0.1-1.2-0.3-1.7c-0.2-0.5-0.5-0.9-0.9-1.3c-0.4-0.4-0.8-0.6-1.3-0.8c-0.5-0.2-1-0.3-1.6-0.3
				c-0.6,0-1.2,0.1-1.7,0.3c-0.5,0.2-1,0.5-1.3,0.8c-0.4,0.4-0.7,0.8-0.9,1.3c-0.2,0.5-0.3,1-0.3,1.6V124z"/>
		</g>
	</g>
</g>
</svg>
