<?xml version="1.0" encoding="UTF-8"?>
<svg width="444px" height="135px" viewBox="0 0 444 135" version="1.1" xmlns="http://www.w3.org/2000/svg" xmlns:xlink="http://www.w3.org/1999/xlink">
    <!-- Generator: Sketch 52.5 (67469) - http://www.bohemiancoding.com/sketch -->
    <title>moscow-business-school</title>
    <desc>Created with Sketch.</desc>
    <g id="moscow-business-school" stroke="none" stroke-width="1" fill="none" fill-rule="evenodd">
        <polygon id="Fill-2" fill="#D7322B" points="0 134.764 134.765 134.764 134.765 0 0 0"></polygon>
        <path d="M51.037,77.103 C40.382,64.38 46.939,57.316 54.581,49.081 C59.477,43.807 64.859,38.008 65.809,29.809 L68.482,29.858 C69.112,38.406 74.751,44.327 79.869,49.706 C87.639,57.863 94.301,64.857 83.232,77.513 L81.142,75.984 C90.81,64.925 84.834,58.649 77.854,51.316 C73.684,46.937 69.185,42.214 67.03,35.981 C64.787,41.882 60.561,46.435 56.628,50.668 C49.736,58.091 43.826,64.46 53.165,75.612 L51.037,77.103" id="Fill-3" fill="#FFFFFE"></path>
        <path d="M103.253,61.025 C104.959,58.921 106.393,56.554 106.729,53.629 L109.402,53.68 C110.182,64.319 126.038,65.877 115.867,77.513 L113.777,75.984 C120.981,67.74 111.213,65.528 107.979,58.612 C107.159,60.263 106.076,61.723 104.927,63.075 C104.553,62.438 103.9,61.504 103.253,61.025" id="Fill-4" fill="#FFFFFE"></path>
        <path d="M31.696,61.241 C29.915,59.087 28.391,56.655 28.04,53.629 L25.368,53.68 C24.586,64.319 8.732,67.167 18.902,78.802 L20.993,77.274 C13.786,69.032 23.555,65.528 26.785,58.612 C27.562,60.168 28.57,61.55 29.642,62.832 L29.774,62.603 C30.08,62.057 31.015,61.394 31.696,61.241" id="Fill-5" fill="#FFFFFE"></path>
        <path d="M82.649,54.52 C86.133,50.695 89.416,46.762 90.022,41.525 L92.695,41.576 C93.707,55.418 116.253,61.14 103.211,76.061 L101.122,74.533 C111.08,63.143 95.235,56.783 91.257,47.023 C89.633,50.719 86.904,53.689 84.163,56.677 C83.565,56.029 83.356,54.909 82.649,54.52" id="Fill-6" fill="#FFFFFE"></path>
        <path d="M73.611,45.541 C75.811,42.744 77.544,39.714 77.971,36.046 L80.64,36.094 C81.061,41.804 85.139,46.129 88.876,50.29 C88.562,50.51 88.178,50.87 87.839,51.019 C87.349,51.24 87.26,51.504 87.037,51.899 C84.114,48.633 80.76,45.344 79.208,41.544 C78.251,43.72 76.904,45.65 75.403,47.479 C75.097,46.854 74.54,46.348 74.013,45.864 C73.998,45.864 73.657,45.573 73.611,45.541" id="Fill-7" fill="#FFFFFE"></path>
        <path d="M52.469,55.8 C48.622,51.614 44.735,47.439 44.07,41.689 L41.394,41.741 C40.382,55.583 17.835,61.302 30.878,76.227 L32.969,74.699 C23.008,63.305 38.853,56.947 42.833,47.187 C44.443,50.847 47.14,53.797 49.85,56.755 C50.118,56.481 50.689,56.213 51.098,56.144 C51.455,55.832 51.989,55.755 52.469,55.8" id="Fill-8" fill="#FFFFFE"></path>
        <path d="M42.24,63.709 L42.171,63.408 M60.794,45.582 C58.545,42.749 56.756,39.683 56.323,35.954 L53.654,36.005 C53.225,41.813 49.01,46.188 45.222,50.419 C46.71,50.711 46.205,51.905 46.395,52.798 C49.493,49.199 53.381,45.637 55.087,41.452 C55.981,43.478 57.205,45.285 58.578,46.995 C59.06,46.216 59.951,45.915 60.794,45.582" id="Fill-9" fill="#FFFFFE"></path>
        <path d="M74.687,99.176 L74.572,99.364 L74.45,99.53 L74.294,99.71 L74.107,99.872 L73.948,100.001 L73.752,100.111 L73.551,100.213 L73.339,100.282 L73.127,100.334 L72.902,100.368 L72.702,100.376 L60.886,100.376 L60.886,95.857 L72.702,95.857 L72.907,95.866 L73.122,95.896 L73.339,95.952 L73.547,96.025 L73.749,96.114 L73.933,96.23 L74.107,96.358 L74.254,96.49 L74.307,96.541 L74.445,96.69 L74.572,96.865 L74.687,97.053 L74.779,97.258 L74.852,97.463 L74.901,97.676 L74.932,97.899 L74.943,98.117 L74.932,98.335 L74.901,98.557 L74.852,98.775 L74.779,98.98 L74.687,99.176 Z M69.728,89.507 L69.948,89.538 L70.16,89.597 L70.365,89.667 L70.566,89.759 L70.754,89.872 L70.932,90 L71.079,90.135 L71.133,90.187 L71.265,90.332 L71.393,90.511 L71.506,90.699 L71.598,90.895 L71.67,91.105 L71.726,91.323 L71.753,91.536 L71.767,91.758 L71.753,91.98 L71.726,92.203 L71.67,92.417 L71.598,92.626 L71.506,92.818 L71.397,93.005 L71.284,93.159 L71.137,93.338 L70.95,93.513 L70.767,93.645 L70.577,93.761 L70.38,93.847 L70.184,93.915 L69.984,93.966 L69.787,94.005 L69.581,94.022 L60.886,94.022 L60.886,89.499 L69.526,89.499 L69.728,89.507 Z M73.52,92.643 L73.547,92.475 L73.572,92.3 L73.587,92.126 L73.596,91.946 L73.6,91.771 L73.584,91.339 L73.528,90.938 L73.437,90.558 L73.311,90.196 L73.146,89.853 L72.938,89.52 L72.693,89.196 L72.292,88.756 L72.11,88.589 L71.781,88.342 L71.437,88.137 L71.087,87.966 L70.723,87.838 L70.338,87.744 L69.933,87.684 L69.486,87.667 L59.878,87.667 L59.791,87.684 L59.709,87.701 L59.634,87.727 L59.562,87.765 L59.489,87.813 L59.412,87.863 L59.329,87.949 L59.248,88.031 L59.193,88.098 L59.152,88.167 L59.115,88.24 L59.088,88.312 L59.069,88.393 L59.056,88.487 L59.052,88.607 L59.052,101.272 L59.056,101.391 L59.069,101.477 L59.088,101.563 L59.12,101.639 L59.156,101.716 L59.201,101.793 L59.256,101.862 L59.329,101.939 L59.409,102.007 L59.481,102.067 L59.553,102.114 L59.63,102.152 L59.709,102.178 L59.791,102.194 L59.878,102.212 L72.665,102.212 L73.109,102.194 L73.511,102.135 L73.893,102.046 L74.258,101.918 L74.604,101.751 L74.938,101.546 L75.257,101.306 L75.586,101.008 L75.887,100.683 L76.124,100.363 L76.325,100.029 L76.49,99.684 L76.617,99.325 L76.703,98.941 L76.763,98.54 L76.782,98.117 L76.763,97.694 L76.703,97.293 L76.613,96.913 L76.485,96.558 L76.32,96.215 L76.12,95.883 L75.872,95.563 L75.554,95.222 L75.39,95.033 L75.213,94.883 L75.017,94.739 L74.815,94.602 L74.604,94.487 L74.39,94.377 L74.166,94.286 L73.122,93.927 L73.443,92.963 L73.483,92.809 L73.52,92.643 Z M38.889,102.212 L38.986,102.212 L39.078,102.194 L39.165,102.174 L39.242,102.144 L39.323,102.11 L39.402,102.067 L39.479,102.007 L39.547,101.947 L39.603,101.879 L39.656,101.801 L39.703,101.734 L39.739,101.648 L39.767,101.567 L39.788,101.477 L39.803,101.391 L39.808,101.272 L39.808,90.494 L46.258,95.645 L46.341,95.709 L46.405,95.747 L46.469,95.781 L46.538,95.807 L46.61,95.829 L46.678,95.84 L46.755,95.857 L46.92,95.857 L46.997,95.84 L47.071,95.829 L47.144,95.807 L47.212,95.777 L47.285,95.738 L47.361,95.695 L47.441,95.639 L53.863,90.49 L53.863,101.272 L53.87,101.391 L53.882,101.477 L53.899,101.563 L53.931,101.639 L53.97,101.716 L54.015,101.793 L54.07,101.862 L54.143,101.947 L54.22,102.015 L54.288,102.067 L54.361,102.114 L54.433,102.144 L54.516,102.174 L54.598,102.194 L54.686,102.212 L54.882,102.212 L54.974,102.194 L55.055,102.174 L55.138,102.144 L55.214,102.11 L55.292,102.067 L55.371,102.007 L55.439,101.947 L55.497,101.879 L55.548,101.801 L55.593,101.734 L55.629,101.648 L55.661,101.567 L55.68,101.477 L55.693,101.391 L55.697,101.272 L55.697,88.598 L55.693,88.487 L55.685,88.402 L55.665,88.325 L55.64,88.243 L55.608,88.175 L55.571,88.102 L55.521,88.031 L55.456,87.958 L55.388,87.889 L55.32,87.835 L55.251,87.787 L55.187,87.757 L55.118,87.727 L55.05,87.706 L54.977,87.693 L54.867,87.684 L54.749,87.675 L54.662,87.684 L54.585,87.693 L54.513,87.71 L54.439,87.736 L54.361,87.774 L54.284,87.821 L54.192,87.884 L46.835,93.765 L39.502,87.884 L39.415,87.826 L39.327,87.774 L39.246,87.736 L39.169,87.71 L39.094,87.693 L39.018,87.684 L38.937,87.675 L38.825,87.684 L38.712,87.693 L38.635,87.706 L38.561,87.727 L38.492,87.757 L38.428,87.787 L38.36,87.835 L38.292,87.893 L38.223,87.958 L38.159,88.035 L38.11,88.107 L38.065,88.188 L38.033,88.257 L38.005,88.325 L37.986,88.411 L37.974,88.491 L37.969,88.607 L37.969,101.272 L37.978,101.391 L37.986,101.477 L38.01,101.563 L38.038,101.639 L38.074,101.716 L38.119,101.793 L38.174,101.862 L38.251,101.947 L38.328,102.015 L38.398,102.067 L38.471,102.114 L38.544,102.144 L38.62,102.174 L38.704,102.194 L38.793,102.212 L38.889,102.212 Z M81.192,95.559 L81.554,95.691 L81.931,95.781 L82.329,95.836 L82.767,95.857 L92.307,95.857 L92.507,95.866 L92.727,95.896 L92.941,95.952 L93.146,96.025 L93.346,96.114 L93.535,96.23 L93.711,96.358 L93.859,96.494 L93.912,96.549 L94.044,96.69 L94.172,96.865 L94.288,97.053 L94.377,97.258 L94.452,97.463 L94.506,97.676 L94.534,97.894 L94.543,98.117 L94.534,98.343 L94.506,98.557 L94.452,98.775 L94.377,98.98 L94.288,99.176 L94.172,99.364 L94.05,99.53 L93.895,99.71 L93.707,99.872 L93.547,100.001 L93.357,100.111 L93.152,100.213 L92.945,100.282 L92.727,100.334 L92.507,100.368 L92.302,100.376 L79.591,100.376 L79.479,100.384 L79.391,100.393 L79.314,100.418 L79.235,100.444 L79.162,100.478 L79.09,100.53 L79.018,100.581 L78.929,100.666 L78.849,100.743 L78.794,100.812 L78.753,100.88 L78.717,100.948 L78.689,101.029 L78.669,101.11 L78.656,101.205 L78.652,101.294 L78.656,101.391 L78.669,101.477 L78.693,101.563 L78.72,101.639 L78.757,101.713 L78.802,101.793 L78.857,101.862 L78.929,101.939 L79.006,102.007 L79.081,102.067 L79.154,102.114 L79.231,102.152 L79.308,102.178 L79.391,102.194 L79.479,102.212 L92.265,102.212 L92.708,102.194 L93.109,102.135 L93.493,102.046 L93.859,101.918 L94.204,101.751 L94.537,101.546 L94.858,101.306 L95.187,101.008 L95.487,100.683 L95.725,100.363 L95.925,100.029 L96.09,99.684 L96.218,99.325 L96.308,98.941 L96.363,98.54 L96.38,98.117 L96.363,97.694 L96.308,97.293 L96.218,96.917 L96.09,96.558 L95.925,96.215 L95.72,95.883 L95.474,95.563 L95.054,95.106 L94.886,94.953 L94.558,94.705 L94.219,94.496 L93.867,94.329 L93.498,94.193 L93.116,94.098 L92.712,94.044 L92.261,94.022 L82.73,94.022 L82.53,94.013 L82.306,93.979 L82.092,93.927 L81.882,93.85 L81.682,93.756 L81.495,93.642 L81.321,93.509 L81.174,93.373 L81.133,93.338 L81.002,93.185 L80.868,93.014 L80.755,92.825 L80.659,92.629 L80.583,92.421 L80.527,92.203 L80.499,91.989 L80.487,91.758 L80.499,91.536 L80.531,91.314 L80.586,91.096 L80.659,90.887 L80.76,90.682 L80.883,90.49 L81.024,90.31 L81.165,90.166 L81.306,90.034 L81.486,89.892 L81.671,89.773 L81.876,89.675 L82.087,89.597 L82.301,89.538 L82.525,89.507 L82.726,89.499 L93.284,89.499 L93.401,89.495 L93.493,89.477 L93.575,89.462 L93.658,89.431 L93.74,89.393 L93.818,89.35 L93.895,89.29 L93.959,89.235 L94.013,89.167 L94.072,89.089 L94.12,89.008 L94.155,88.931 L94.183,88.846 L94.204,88.765 L94.213,88.674 L94.219,88.582 L94.213,88.484 L94.204,88.393 L94.183,88.307 L94.155,88.231 L94.12,88.154 L94.077,88.086 L94.028,88.009 L93.964,87.941 L93.887,87.872 L93.808,87.817 L93.731,87.77 L93.654,87.736 L93.575,87.701 L93.493,87.684 L93.401,87.667 L82.767,87.667 L82.329,87.684 L81.931,87.744 L81.559,87.835 L81.198,87.966 L80.852,88.137 L80.515,88.342 L80.19,88.589 L79.873,88.871 L79.584,89.196 L79.331,89.52 L79.122,89.862 L78.953,90.204 L78.825,90.563 L78.729,90.938 L78.669,91.339 L78.652,91.758 L78.669,92.185 L78.729,92.595 L78.825,92.975 L78.957,93.338 L79.126,93.688 L79.331,94.025 L79.673,94.474 L80.19,94.944 L80.515,95.192 L80.847,95.397 L81.192,95.559 Z" id="Fill-10" fill="#FFFFFF"></path>
        <path d="M347.287,111.973 C347.305,112.029 347.297,112.145 347.262,112.331 L343.966,123.306 C343.556,124.648 343.347,125.357 343.324,125.425 C342.949,126.552 342.619,127.398 342.332,127.979 C341.963,128.709 341.454,129.237 340.81,129.562 C340.327,129.806 339.781,129.934 339.175,129.934 C338.712,129.934 338.243,129.867 337.755,129.72 C337.491,129.647 337.202,129.542 336.89,129.396 C336.578,129.256 336.296,129.106 336.047,128.943 C335.954,128.892 335.894,128.815 335.86,128.729 C335.82,128.641 335.82,128.543 335.86,128.435 L336.389,127.368 C336.467,127.277 336.525,127.232 336.578,127.232 C336.615,127.232 336.684,127.259 336.781,127.325 C336.88,127.385 336.971,127.443 337.063,127.499 C337.327,127.68 337.652,127.851 338.024,128.022 C338.399,128.188 338.765,128.276 339.122,128.276 C339.426,128.276 339.703,128.201 339.954,128.035 C340.438,127.713 340.848,127.036 341.18,125.997 L341.749,124.313 L340.78,124.313 C340.604,124.313 340.488,124.233 340.438,124.074 L336.235,112.273 C336.157,112.054 336.216,111.919 336.389,111.871 L337.41,111.47 L337.652,111.357 L337.969,111.282 C337.987,111.282 338.029,111.29 338.093,111.301 C338.153,111.325 338.203,111.384 338.243,111.496 L341.612,121.606 C341.769,122.112 341.895,122.511 341.975,122.811 C342.051,123.118 342.104,123.324 342.121,123.43 L342.146,123.538 C342.219,123.214 342.3,122.879 342.385,122.537 C342.479,122.184 342.546,121.898 342.602,121.666 L345.279,111.496 C345.314,111.349 345.404,111.282 345.548,111.282 L345.814,111.282 L347.126,111.81 C347.231,111.888 347.287,111.938 347.287,111.973 Z M331.444,120.834 L331.444,113.604 L331.309,113.529 C331.06,113.365 330.702,113.219 330.239,113.084 C329.771,112.948 329.352,112.887 328.977,112.887 C328.015,112.887 327.275,113.28 326.755,114.075 C326.244,114.867 325.979,116.09 325.979,117.731 C325.979,119.442 326.206,120.637 326.654,121.316 C327.023,121.887 327.575,122.172 328.31,122.172 C328.72,122.172 329.19,122.058 329.731,121.838 C330.265,121.616 330.771,121.324 331.256,120.971 L331.444,120.834 Z M334.17,112.374 C333.974,112.683 333.81,113.041 333.677,113.459 C333.546,113.879 333.478,114.271 333.478,114.626 L333.478,119.147 L333.664,125.219 C333.664,126.792 333.216,127.992 332.323,128.807 C331.505,129.562 330.378,129.934 328.951,129.934 C328.241,129.934 327.529,129.854 326.81,129.695 C326.098,129.532 325.509,129.318 325.049,129.051 C324.902,128.965 324.767,128.875 324.646,128.782 C324.518,128.697 324.457,128.601 324.457,128.515 C324.492,128.405 324.518,128.329 324.54,128.276 L324.988,127.257 C325.063,127.149 325.124,127.098 325.177,127.098 C325.287,127.098 325.355,127.106 325.388,127.124 C325.517,127.21 325.638,127.288 325.74,127.338 C326.048,127.499 326.525,127.67 327.175,127.858 C327.824,128.048 328.418,128.14 328.951,128.14 C330.023,128.14 330.76,127.839 331.17,127.232 C331.478,126.782 331.634,126.125 331.634,125.25 L331.548,122.494 C331.103,122.872 330.604,123.186 330.053,123.455 C329.334,123.793 328.634,123.964 327.935,123.964 C326.755,123.964 325.796,123.503 325.049,122.572 C324.205,121.523 323.783,120.01 323.783,118.05 C323.783,115.587 324.334,113.75 325.418,112.538 C326.294,111.571 327.408,111.093 328.763,111.093 C329.334,111.093 329.897,111.178 330.436,111.362 C330.984,111.546 331.452,111.777 331.845,112.054 L332.033,112.213 C332.187,111.767 332.308,111.496 332.376,111.384 C332.572,111.086 332.775,111 332.989,111.146 L334.197,111.896 C334.237,111.914 334.271,111.964 334.306,112.054 C334.255,112.213 334.207,112.318 334.17,112.374 Z M322.61,111.682 L321.964,113.151 C321.946,113.186 321.926,113.219 321.888,113.247 C321.853,113.272 321.822,113.298 321.805,113.315 C321.682,113.262 321.563,113.204 321.46,113.151 C321.35,113.101 321.209,113.076 321.032,113.076 C320.675,113.076 320.272,113.262 319.83,113.634 C319.556,113.869 319.241,114.203 318.858,114.651 L318.436,115.184 L318.436,123.989 C318.436,124.203 318.325,124.313 318.111,124.313 L316.72,124.313 C316.506,124.313 316.4,124.203 316.4,123.989 L316.4,114.809 C316.4,114.346 316.37,113.979 316.302,113.713 C316.242,113.446 316.123,113.133 315.942,112.776 L315.756,112.401 C315.684,112.263 315.653,112.16 315.653,112.11 C315.653,112.016 315.684,111.949 315.756,111.896 L316.83,111.196 L317.015,111.093 C317.195,111.111 317.361,111.252 317.508,111.521 C317.661,111.785 317.792,112.077 317.9,112.386 C318.006,112.704 318.084,113.015 318.139,113.34 L318.514,112.912 C318.997,112.341 319.377,111.949 319.666,111.735 C320.218,111.301 320.799,111.093 321.405,111.093 C321.619,111.093 321.785,111.105 321.913,111.129 C322.042,111.159 322.208,111.214 322.422,111.295 C322.638,111.373 322.698,111.504 322.61,111.682 Z M310.724,116.662 C310.724,116.389 310.698,116.052 310.641,115.642 C310.593,115.232 310.472,114.809 310.299,114.382 C310.042,113.793 309.71,113.373 309.289,113.126 C308.872,112.88 308.411,112.752 307.916,112.752 C307.096,112.752 306.429,113.036 305.907,113.604 C305.264,114.303 304.944,115.32 304.944,116.662 L310.724,116.662 Z M312.92,117.867 C312.92,118.166 312.824,118.32 312.629,118.32 L304.944,118.32 L304.944,118.451 C304.944,119.9 305.336,121.017 306.121,121.82 C306.813,122.537 307.654,122.896 308.633,122.896 C309.153,122.896 309.632,122.819 310.079,122.665 C310.527,122.516 311.023,122.283 311.579,121.958 L311.903,121.82 C312.022,121.88 312.088,121.923 312.088,121.958 L312.57,123.166 L312.601,123.324 C312.601,123.392 312.53,123.478 312.399,123.563 C312.261,123.651 311.979,123.802 311.554,124.007 C311.126,124.213 310.668,124.374 310.19,124.502 C309.71,124.623 309.171,124.691 308.582,124.691 C307.01,124.691 305.711,124.213 304.675,123.271 C303.394,122.094 302.747,120.299 302.747,117.892 C302.747,115.765 303.243,114.105 304.234,112.9 C305.226,111.697 306.514,111.093 308.102,111.093 C309.455,111.093 310.537,111.508 311.34,112.348 C312.395,113.456 312.92,115.248 312.92,117.731 L312.92,117.867 Z M299.4,123.989 C299.4,124.203 299.298,124.313 299.078,124.313 L297.692,124.313 C297.474,124.313 297.367,124.203 297.367,123.989 L297.367,115.051 C297.367,114.445 297.29,113.989 297.129,113.69 C296.859,113.151 296.358,112.887 295.626,112.887 C295.002,112.887 294.341,113.066 293.644,113.416 C293.06,113.725 292.539,114.092 292.099,114.517 L292.099,123.989 C292.099,124.203 291.988,124.313 291.774,124.313 L290.38,124.313 C290.169,124.313 290.061,124.203 290.061,123.989 L290.061,114.382 C290.061,113.869 290.04,113.507 289.992,113.302 C289.944,113.096 289.864,112.862 289.736,112.588 L289.66,112.429 C289.588,112.306 289.545,112.213 289.534,112.145 C289.532,112.085 289.522,112.047 289.522,112.029 C289.522,111.973 289.54,111.938 289.577,111.919 C289.612,111.906 289.638,111.888 289.66,111.871 L290.911,111.171 C291.133,111.048 291.316,111.146 291.479,111.47 C291.567,111.627 291.653,111.853 291.733,112.145 C291.812,112.442 291.872,112.698 291.91,112.912 C292.479,112.409 293.105,111.999 293.807,111.682 C294.643,111.29 295.498,111.093 296.346,111.093 C297.692,111.093 298.58,111.571 299.023,112.538 C299.277,113.076 299.4,113.928 299.4,115.106 L299.4,123.989 Z M286.337,106.247 L285.881,107.609 C285.851,107.771 285.73,107.853 285.534,107.853 L279.54,107.853 L279.54,113.793 L284.812,113.793 C285.025,113.793 285.134,113.904 285.134,114.118 L285.134,115.348 C285.134,115.559 285.025,115.673 284.812,115.673 L279.54,115.673 L279.54,122.438 L285.967,122.438 C286.181,122.438 286.291,122.547 286.291,122.763 L286.291,123.989 C286.291,124.203 286.181,124.313 285.967,124.313 L277.668,124.313 C277.454,124.313 277.349,124.203 277.349,123.989 L277.349,106.303 C277.349,106.09 277.454,105.979 277.668,105.979 L286.072,105.979 C286.321,105.979 286.409,106.072 286.337,106.247 Z M164.043,122.841 L163.613,124.016 C163.546,124.213 163.398,124.313 163.185,124.313 L155.105,124.313 C154.89,124.313 154.78,124.203 154.78,123.989 L154.78,106.303 C154.78,106.09 154.89,105.979 155.105,105.979 L156.655,105.979 C156.871,105.979 156.976,106.09 156.976,106.303 L156.976,122.438 L163.778,122.438 C163.92,122.457 164.006,122.486 164.043,122.522 C164.079,122.554 164.079,122.665 164.043,122.841 Z" id="Fill-11" fill="#FFFFFF"></path>
        <g id="Group-15" transform="translate(150.000000, 26.000000)" fill="#FFFFFF">
            <path d="M115.114,91.746 C115.114,89.773 114.889,88.467 114.443,87.831 C114,87.194 113.338,86.88 112.463,86.88 C111.997,86.88 111.472,87.033 110.883,87.33 C110.49,87.536 110.055,87.818 109.576,88.193 L109.576,96.008 C109.929,96.24 110.379,96.444 110.913,96.623 C111.446,96.803 111.937,96.889 112.385,96.889 C113.547,96.889 114.319,96.363 114.712,95.311 C114.981,94.599 115.114,93.412 115.114,91.746 Z M117.309,91.806 C117.309,94.478 116.72,96.393 115.545,97.538 C114.742,98.3 113.721,98.68 112.488,98.68 C111.846,98.68 111.215,98.562 110.591,98.31 C110.233,98.17 109.891,97.986 109.576,97.777 L109.576,103.285 C109.521,103.481 109.448,103.588 109.362,103.6 L108.072,103.934 C107.969,103.934 107.868,103.934 107.782,103.934 C107.619,103.934 107.543,103.832 107.543,103.635 L107.543,88.945 C107.543,88.442 107.514,88.032 107.458,87.713 C107.405,87.387 107.227,86.967 106.925,86.452 C106.799,86.256 106.741,86.134 106.741,86.077 C106.741,86.007 106.756,85.962 106.791,85.949 C106.826,85.931 106.852,85.908 106.869,85.893 L108.021,85.166 C108.183,85.06 108.334,85.076 108.475,85.221 C108.618,85.367 108.756,85.571 108.893,85.85 C109.028,86.128 109.126,86.401 109.199,86.666 L109.413,86.507 C109.914,86.134 110.404,85.828 110.883,85.596 C111.582,85.257 112.256,85.086 112.918,85.086 C113.99,85.086 114.878,85.443 115.596,86.157 C116.737,87.302 117.309,89.179 117.309,91.806 Z M102.753,97.986 C102.753,98.203 102.64,98.31 102.428,98.31 L101.034,98.31 C100.822,98.31 100.715,98.203 100.715,97.986 L100.715,87.121 L98.626,87.121 C98.412,87.121 98.307,87.015 98.307,86.801 L98.307,85.78 C98.307,85.571 98.412,85.461 98.626,85.461 L102.397,85.461 C102.632,85.461 102.753,85.596 102.753,85.863 L102.753,97.986 Z M103.256,80.756 C103.256,81.216 103.092,81.609 102.772,81.934 C102.453,82.25 102.061,82.412 101.595,82.412 C101.132,82.412 100.744,82.25 100.42,81.934 C100.096,81.609 99.942,81.216 99.942,80.756 C99.942,80.29 100.096,79.897 100.42,79.573 C100.744,79.253 101.132,79.094 101.595,79.094 C102.061,79.094 102.453,79.253 102.772,79.573 C103.092,79.897 103.256,80.29 103.256,80.756 Z M95.44,97.986 C95.44,98.203 95.33,98.31 95.116,98.31 L93.725,98.31 C93.516,98.31 93.407,98.203 93.407,97.986 L93.407,89.049 C93.407,88.475 93.332,88.04 93.191,87.74 C92.922,87.164 92.389,86.88 91.586,86.88 C90.889,86.88 90.184,87.076 89.472,87.468 C88.951,87.75 88.48,88.105 88.053,88.515 L88.053,97.986 C88.053,98.203 87.942,98.31 87.729,98.31 L86.337,98.31 C86.128,98.31 86.02,98.203 86.02,97.986 L86.02,79.602 C86.02,79.423 86.088,79.317 86.233,79.278 L87.625,78.928 L87.864,78.928 C87.99,78.928 88.053,79.048 88.053,79.278 L88.053,86.907 C88.838,86.23 89.633,85.742 90.436,85.435 C91.06,85.204 91.684,85.086 92.306,85.086 C93.682,85.086 94.605,85.576 95.065,86.557 C95.317,87.096 95.44,87.946 95.44,89.104 L95.44,97.986 Z M82.648,94.966 C82.648,96.124 82.203,97.05 81.31,97.75 C80.504,98.374 79.521,98.68 78.363,98.68 C77.701,98.68 77.05,98.595 76.397,98.417 C75.743,98.238 75.197,98.042 74.75,97.828 C74.664,97.79 74.581,97.75 74.508,97.694 C74.367,97.584 74.294,97.485 74.294,97.4 L74.319,97.214 L74.833,96.144 C74.868,96.051 74.918,96.008 74.991,96.008 C75.079,96.026 75.162,96.044 75.232,96.058 C75.446,96.172 75.636,96.255 75.796,96.333 C76.148,96.509 76.571,96.653 77.052,96.773 C77.53,96.889 77.988,96.947 78.418,96.947 C79.88,96.947 80.615,96.302 80.615,95.017 C80.615,94.446 80.378,93.975 79.913,93.6 C79.631,93.369 79.01,93.027 78.043,92.579 C76.868,92.028 76.091,91.58 75.713,91.243 C75.019,90.619 74.669,89.786 74.669,88.757 C74.669,87.682 75.034,86.801 75.754,86.12 C76.479,85.43 77.43,85.086 78.607,85.086 C79.176,85.086 79.802,85.174 80.479,85.349 C80.676,85.41 80.922,85.496 81.229,85.606 C81.528,85.722 81.75,85.823 81.896,85.906 C82.042,85.981 82.117,86.067 82.135,86.145 C82.152,86.225 82.143,86.3 82.109,86.372 L81.656,87.365 C81.621,87.451 81.571,87.507 81.508,87.529 C81.447,87.536 81.407,87.544 81.388,87.544 L80.984,87.387 C80.167,87.015 79.428,86.827 78.766,86.827 C78.086,86.827 77.573,86.998 77.229,87.33 C76.881,87.673 76.702,88.105 76.702,88.621 C76.702,89.082 76.843,89.484 77.117,89.808 C77.395,90.14 78.108,90.573 79.267,91.096 C80.408,91.618 81.184,92.063 81.576,92.421 C82.288,93.062 82.648,93.913 82.648,94.966 Z M73.441,85.674 L72.798,87.151 C72.778,87.181 72.75,87.212 72.715,87.242 C72.678,87.272 72.655,87.293 72.638,87.31 C72.509,87.255 72.396,87.204 72.29,87.151 C72.182,87.096 72.041,87.066 71.857,87.066 C71.502,87.066 71.1,87.255 70.657,87.63 C70.388,87.861 70.065,88.203 69.688,88.646 L69.266,89.179 L69.266,97.986 C69.266,98.203 69.154,98.31 68.941,98.31 L67.55,98.31 C67.336,98.31 67.232,98.203 67.232,97.986 L67.232,88.809 C67.232,88.346 67.199,87.979 67.135,87.713 C67.071,87.443 66.95,87.133 66.774,86.771 L66.586,86.401 C66.513,86.256 66.478,86.157 66.478,86.104 C66.478,86.016 66.513,85.949 66.586,85.893 L67.655,85.196 L67.847,85.086 C68.025,85.105 68.188,85.247 68.34,85.515 C68.49,85.78 68.621,86.077 68.727,86.383 C68.838,86.698 68.913,87.015 68.969,87.33 L69.344,86.907 C69.826,86.341 70.209,85.949 70.493,85.735 C71.05,85.301 71.631,85.086 72.237,85.086 C72.448,85.086 72.617,85.103 72.743,85.129 C72.871,85.153 73.04,85.204 73.252,85.29 C73.469,85.367 73.526,85.498 73.441,85.674 Z M61.556,90.654 C61.556,90.389 61.528,90.048 61.473,89.637 C61.425,89.227 61.305,88.809 61.128,88.377 C60.874,87.788 60.542,87.37 60.124,87.121 C59.704,86.87 59.241,86.752 58.745,86.752 C57.925,86.752 57.251,87.033 56.737,87.604 C56.096,88.301 55.771,89.318 55.771,90.654 L61.556,90.654 Z M63.75,91.856 C63.75,92.161 63.649,92.314 63.453,92.314 L55.771,92.314 L55.771,92.448 C55.771,93.895 56.164,95.017 56.946,95.82 C57.646,96.537 58.483,96.889 59.465,96.889 C59.985,96.889 60.467,96.811 60.912,96.665 C61.359,96.511 61.857,96.272 62.409,95.958 L62.733,95.82 C62.856,95.873 62.917,95.918 62.917,95.958 L63.402,97.161 L63.431,97.319 C63.431,97.387 63.362,97.467 63.227,97.563 C63.093,97.649 62.813,97.802 62.384,98.007 C61.958,98.213 61.5,98.374 61.022,98.497 C60.537,98.623 60.003,98.68 59.414,98.68 C57.842,98.68 56.541,98.213 55.504,97.264 C54.219,96.087 53.574,94.295 53.574,91.884 C53.574,89.765 54.072,88.1 55.064,86.894 C56.053,85.692 57.344,85.086 58.932,85.086 C60.285,85.086 61.367,85.508 62.17,86.348 C63.227,87.451 63.75,89.245 63.75,91.731 L63.75,91.856 Z M48.197,95.311 L48.197,87.762 C47.734,87.499 47.273,87.28 46.818,87.121 C46.363,86.965 45.933,86.88 45.522,86.88 C44.31,86.88 43.488,87.416 43.06,88.485 C42.771,89.202 42.631,90.337 42.631,91.884 C42.631,93.369 42.727,94.446 42.923,95.126 C43.265,96.302 43.95,96.889 44.984,96.889 C45.467,96.889 46.001,96.736 46.592,96.411 C46.768,96.32 47.143,96.069 47.719,95.659 L48.197,95.311 Z M51.005,97.722 C51.005,97.777 50.925,97.853 50.767,97.964 L49.725,98.605 C49.493,98.751 49.264,98.643 49.04,98.299 C48.818,97.946 48.652,97.553 48.547,97.105 L48.333,97.264 C47.832,97.639 47.339,97.946 46.861,98.177 C46.162,98.514 45.487,98.68 44.825,98.68 C43.733,98.68 42.827,98.318 42.096,97.584 C40.989,96.479 40.436,94.642 40.436,92.071 C40.436,89.338 41.033,87.4 42.229,86.238 C43.032,85.47 44.022,85.086 45.198,85.086 C45.608,85.086 45.985,85.129 46.325,85.196 C46.981,85.332 47.608,85.606 48.197,85.999 L48.197,79.602 C48.197,79.423 48.271,79.317 48.411,79.278 L49.803,78.928 L50.044,78.928 C50.167,78.928 50.23,79.048 50.23,79.278 L50.23,94.079 C50.23,94.549 50.235,94.987 50.243,95.42 C50.256,95.847 50.341,96.272 50.5,96.706 C50.588,96.957 50.696,97.174 50.821,97.375 C50.947,97.571 51.005,97.681 51.005,97.722 Z M34.92,95.367 L34.92,91.912 L34.815,91.912 C32.886,91.912 31.529,92.252 30.747,92.933 C30.193,93.412 29.915,94.044 29.915,94.831 C29.915,95.565 30.129,96.124 30.558,96.516 C30.915,96.854 31.352,97.025 31.871,97.025 C32.389,97.025 32.967,96.829 33.608,96.436 C34.021,96.187 34.404,95.88 34.76,95.53 L34.92,95.367 Z M37.758,97.722 C37.686,97.828 37.634,97.888 37.599,97.908 L36.475,98.605 C36.386,98.655 36.289,98.68 36.202,98.68 C36.104,98.68 35.964,98.514 35.764,98.177 C35.636,97.981 35.54,97.81 35.491,97.681 C35.435,97.546 35.354,97.312 35.243,96.969 L35.243,96.889 L35.134,97 C34.655,97.478 34.218,97.836 33.825,98.067 C33.127,98.477 32.36,98.68 31.521,98.68 C30.307,98.68 29.382,98.288 28.737,97.508 C28.187,96.829 27.906,95.965 27.906,94.911 C27.906,93.913 28.175,93.062 28.711,92.365 C29.354,91.532 30.343,90.954 31.682,90.629 C32.146,90.52 32.67,90.432 33.25,90.359 C33.829,90.287 34.35,90.252 34.815,90.252 L34.92,90.252 L34.92,89.29 C34.92,88.552 34.806,88.014 34.572,87.655 C34.235,87.133 33.602,86.88 32.67,86.88 C31.657,86.88 30.662,87.114 29.7,87.574 L29.299,87.74 C29.23,87.74 29.174,87.72 29.139,87.682 C29.103,87.647 29.085,87.622 29.085,87.604 L28.684,86.538 L28.659,86.318 C28.659,86.23 28.716,86.145 28.833,86.077 C28.949,86.007 29.085,85.938 29.25,85.863 C30.426,85.342 31.648,85.086 32.913,85.086 C35.608,85.086 36.955,86.311 36.955,88.757 L36.955,94.831 C36.955,95.598 37.063,96.24 37.277,96.76 L37.653,97.508 L37.758,97.722 Z M23.277,90.654 C23.277,90.389 23.25,90.048 23.198,89.637 C23.146,89.227 23.025,88.809 22.849,88.377 C22.601,87.788 22.264,87.37 21.845,87.121 C21.424,86.87 20.968,86.752 20.466,86.752 C19.646,86.752 18.979,87.033 18.459,87.604 C17.819,88.301 17.495,89.318 17.495,90.654 L23.277,90.654 Z M25.47,91.856 C25.47,92.161 25.375,92.314 25.18,92.314 L17.495,92.314 L17.495,92.448 C17.495,93.895 17.889,95.017 18.671,95.82 C19.369,96.537 20.205,96.889 21.191,96.889 C21.706,96.889 22.19,96.811 22.633,96.665 C23.081,96.511 23.583,96.272 24.134,95.958 L24.453,95.82 C24.582,95.873 24.646,95.918 24.646,95.958 L25.124,97.161 L25.152,97.319 C25.152,97.387 25.084,97.467 24.952,97.563 C24.818,97.649 24.535,97.802 24.106,98.007 C23.679,98.213 23.222,98.374 22.744,98.497 C22.26,98.623 21.725,98.68 21.136,98.68 C19.565,98.68 18.263,98.213 17.226,97.264 C15.945,96.087 15.301,94.295 15.301,91.884 C15.301,89.765 15.798,88.1 16.789,86.894 C17.779,85.692 19.065,85.086 20.653,85.086 C22.009,85.086 23.09,85.508 23.893,86.348 C24.947,87.451 25.47,89.245 25.47,91.731 L25.47,91.856 Z" id="Fill-12"></path>
            <path d="M293.842,69.533 C293.932,69.747 293.872,69.934 293.655,70.088 C293.192,70.328 292.586,70.533 291.831,70.686 C291.079,70.839 290.452,70.917 289.962,70.917 C289.314,70.917 288.671,70.815 288.021,70.619 C287.377,70.414 286.834,70.131 286.408,69.759 C285.76,69.208 285.339,68.377 285.16,67.261 C285.093,66.92 285.05,66.279 285.015,65.339 C284.989,64.401 284.972,63.752 284.972,63.38 L284.972,37.987 C284.972,37.681 285.093,37.494 285.339,37.433 L287.75,36.832 L288.16,36.832 C288.376,36.832 288.482,37.032 288.482,37.433 L288.482,63.709 C288.482,64.297 288.482,64.84 288.482,65.352 C288.482,65.86 288.535,66.339 288.646,66.784 C288.749,67.228 288.99,67.552 289.362,67.753 C289.73,67.954 290.133,68.055 290.558,68.055 C290.9,68.055 291.217,68.013 291.512,67.936 C291.806,67.859 292.088,67.761 292.359,67.636 L293.009,67.449 L293.192,67.731 L293.842,69.533 Z M275.365,59.182 C275.365,56.202 274.904,53.972 273.981,52.511 C273.055,51.051 271.714,50.316 269.963,50.316 C267.746,50.316 266.208,51.486 265.348,53.827 C264.817,55.245 264.561,57.03 264.561,59.182 C264.561,62.171 265.023,64.401 265.944,65.86 C266.867,67.321 268.209,68.055 269.963,68.055 C272.18,68.055 273.717,66.885 274.58,64.546 C275.104,63.128 275.365,61.342 275.365,59.182 Z M279.157,59.182 C279.157,63.372 278.123,66.484 276.057,68.512 C274.427,70.114 272.394,70.917 269.963,70.917 C267.563,70.917 265.544,70.114 263.911,68.512 C261.82,66.451 260.773,63.341 260.773,59.182 C260.773,54.998 261.803,51.889 263.868,49.856 C265.496,48.258 267.532,47.454 269.963,47.454 C272.363,47.454 274.379,48.258 276.014,49.856 C278.107,51.922 279.157,55.027 279.157,59.182 Z M252.271,59.182 C252.271,56.202 251.811,53.972 250.887,52.511 C249.966,51.051 248.625,50.316 246.866,50.316 C244.652,50.316 243.112,51.486 242.254,53.827 C241.733,55.245 241.467,57.03 241.467,59.182 C241.467,62.171 241.93,64.401 242.851,65.86 C243.773,67.321 245.115,68.055 246.866,68.055 C249.086,68.055 250.628,66.885 251.488,64.546 C252.015,63.128 252.271,61.342 252.271,59.182 Z M256.063,59.182 C256.063,63.372 255.029,66.484 252.968,68.512 C251.333,70.114 249.305,70.917 246.866,70.917 C244.466,70.917 242.45,70.114 240.822,68.512 C238.727,66.451 237.675,63.341 237.675,59.182 C237.675,54.998 238.709,51.889 240.771,49.856 C242.407,48.258 244.44,47.454 246.866,47.454 C249.274,47.454 251.29,48.258 252.92,49.856 C255.014,51.922 256.063,55.027 256.063,59.182 Z M231.492,69.721 C231.492,70.088 231.304,70.267 230.937,70.267 L228.538,70.267 C228.166,70.267 227.982,70.088 227.982,69.721 L227.982,54.292 C227.982,53.305 227.854,52.55 227.607,52.025 C227.149,51.039 226.226,50.551 224.839,50.551 C223.639,50.551 222.421,50.889 221.193,51.564 C220.3,52.059 219.484,52.657 218.745,53.366 L218.745,69.721 C218.745,70.088 218.557,70.267 218.187,70.267 L215.786,70.267 C215.419,70.267 215.235,70.088 215.235,69.721 L215.235,37.987 C215.235,37.681 215.358,37.494 215.607,37.433 L218.005,36.832 L218.421,36.832 C218.635,36.832 218.745,37.032 218.745,37.433 L218.745,50.598 C220.099,49.424 221.465,48.583 222.856,48.054 C223.934,47.652 225.011,47.454 226.085,47.454 C228.46,47.454 230.048,48.3 230.843,49.992 C231.278,50.922 231.492,52.383 231.492,54.382 L231.492,69.721 Z M209.646,68.56 C209.646,68.679 209.525,68.825 209.299,68.978 C209.065,69.131 208.587,69.388 207.842,69.738 C207.107,70.092 206.322,70.375 205.489,70.592 C204.657,70.806 203.736,70.917 202.72,70.917 C200.19,70.917 198.157,70.178 196.62,68.701 C194.683,66.822 193.709,63.802 193.709,59.652 C193.709,55.706 194.67,52.628 196.577,50.411 C198.269,48.438 200.396,47.454 202.948,47.454 C205.103,47.454 207.093,48.101 208.912,49.394 C209.337,49.703 209.594,49.932 209.672,50.087 C209.747,50.24 209.739,50.394 209.646,50.551 L208.539,52.628 L208.306,52.815 C208.215,52.815 208.031,52.705 207.754,52.491 C206.951,51.841 206.194,51.359 205.489,51.035 C204.777,50.711 204.025,50.551 203.228,50.551 C201.348,50.551 199.926,51.283 198.952,52.742 C197.986,54.203 197.501,56.355 197.501,59.182 C197.501,61.645 197.76,63.512 198.283,64.772 C199.113,66.809 200.623,67.82 202.813,67.82 C203.736,67.82 204.627,67.671 205.489,67.36 C206.011,67.176 206.813,66.792 207.89,66.203 L208.448,65.976 C208.662,66.065 208.766,66.142 208.766,66.203 L209.594,68.277 L209.646,68.56 Z M189.464,61.863 C189.464,64.358 188.679,66.438 187.106,68.098 C185.353,69.977 182.965,70.917 179.95,70.917 C178.627,70.917 177.242,70.716 175.796,70.328 C174.347,69.926 172.993,69.406 171.729,68.773 C171.511,68.679 171.324,68.582 171.153,68.491 C170.982,68.398 170.896,68.277 170.896,68.158 L171,67.679 L171.82,65.776 C171.883,65.63 171.951,65.528 172.031,65.485 C172.109,65.443 172.178,65.409 172.238,65.374 C172.298,65.374 172.366,65.382 172.441,65.4 C172.52,65.409 172.794,65.557 173.244,65.836 C174.321,66.39 175.448,66.839 176.636,67.176 C177.812,67.513 178.865,67.679 179.779,67.679 C181.688,67.679 183.131,67.087 184.117,65.878 C184.904,64.895 185.305,63.709 185.305,62.325 C185.305,60.6 184.647,59.139 183.324,57.935 C182.738,57.419 181.337,56.534 179.122,55.304 C176.072,53.614 174.09,52.119 173.187,50.825 C172.275,49.531 171.82,48.011 171.82,46.254 C171.82,44.009 172.58,42.097 174.082,40.527 C175.713,38.834 177.947,37.987 180.778,37.987 C181.923,37.987 183.118,38.131 184.381,38.424 C185.646,38.721 186.85,39.173 187.987,39.789 C188.54,40.094 188.742,40.435 188.583,40.805 L187.803,42.791 C187.737,42.946 187.662,43.05 187.569,43.115 C187.479,43.172 187.418,43.205 187.388,43.205 C187.295,43.205 187.03,43.096 186.603,42.882 C185.493,42.33 184.724,41.972 184.288,41.819 C183.186,41.421 182.059,41.221 180.914,41.221 C179.376,41.221 178.174,41.647 177.293,42.49 C176.417,43.338 175.979,44.451 175.979,45.838 C175.979,47.011 176.312,48.037 176.969,48.934 C177.635,49.826 179.21,50.922 181.709,52.213 C182.69,52.734 183.48,53.186 184.084,53.553 C184.686,53.921 185.244,54.306 185.765,54.708 C188.233,56.646 189.464,59.033 189.464,61.863 Z M157.088,64.499 C157.088,66.497 156.317,68.098 154.78,69.298 C153.394,70.375 151.698,70.917 149.7,70.917 C148.563,70.917 147.428,70.763 146.301,70.456 C145.181,70.148 144.232,69.807 143.465,69.44 C143.312,69.376 143.173,69.298 143.05,69.208 C142.803,69.021 142.68,68.858 142.68,68.701 L142.726,68.377 L143.601,66.527 C143.666,66.374 143.754,66.296 143.878,66.296 C144.036,66.331 144.175,66.36 144.293,66.39 C144.665,66.574 144.99,66.732 145.267,66.851 C145.881,67.159 146.603,67.416 147.436,67.612 C148.269,67.817 149.054,67.915 149.793,67.915 C152.312,67.915 153.577,66.809 153.577,64.588 C153.577,63.606 153.175,62.787 152.38,62.137 C151.884,61.744 150.805,61.155 149.144,60.386 C147.111,59.43 145.77,58.662 145.126,58.08 C143.926,56.996 143.326,55.569 143.326,53.785 C143.326,51.93 143.948,50.42 145.193,49.232 C146.444,48.046 148.08,47.454 150.118,47.454 C151.1,47.454 152.176,47.61 153.346,47.918 C153.684,48.011 154.113,48.156 154.645,48.357 C155.165,48.557 155.551,48.729 155.792,48.865 C156.036,49.002 156.182,49.138 156.212,49.28 C156.242,49.421 156.225,49.548 156.164,49.669 L155.379,51.384 C155.318,51.529 155.233,51.628 155.128,51.658 C155.015,51.688 154.946,51.706 154.916,51.706 L154.227,51.427 C152.808,50.778 151.532,50.454 150.392,50.454 C149.22,50.454 148.336,50.748 147.735,51.333 C147.136,51.922 146.839,52.657 146.839,53.553 C146.839,54.352 147.073,55.036 147.557,55.603 C148.024,56.175 149.26,56.919 151.245,57.824 C153.235,58.729 154.566,59.495 155.241,60.108 C156.472,61.219 157.088,62.674 157.088,64.499 Z M139.122,64.499 C139.122,66.497 138.357,68.098 136.813,69.298 C135.428,70.375 133.732,70.917 131.734,70.917 C130.595,70.917 129.462,70.763 128.34,70.456 C127.221,70.148 126.27,69.807 125.494,69.44 C125.341,69.376 125.205,69.298 125.084,69.208 C124.837,69.021 124.714,68.858 124.714,68.701 L124.76,68.377 L125.64,66.527 C125.7,66.374 125.788,66.296 125.914,66.296 C126.067,66.331 126.204,66.36 126.327,66.39 C126.699,66.574 127.024,66.732 127.298,66.851 C127.917,67.159 128.637,67.416 129.47,67.612 C130.303,67.817 131.09,67.915 131.822,67.915 C134.352,67.915 135.611,66.809 135.611,64.588 C135.611,63.606 135.209,62.787 134.411,62.137 C133.921,61.744 132.839,61.155 131.179,60.386 C129.15,59.43 127.807,58.662 127.16,58.08 C125.957,56.996 125.358,55.569 125.358,53.785 C125.358,51.93 125.987,50.42 127.228,49.232 C128.476,48.046 130.116,47.454 132.146,47.454 C133.136,47.454 134.21,47.61 135.38,47.918 C135.723,48.011 136.152,48.156 136.674,48.357 C137.199,48.557 137.585,48.729 137.828,48.865 C138.075,49.002 138.211,49.138 138.246,49.28 C138.276,49.421 138.259,49.548 138.198,49.669 L137.418,51.384 C137.351,51.529 137.268,51.628 137.162,51.658 C137.051,51.688 136.983,51.706 136.955,51.706 L136.261,51.427 C134.839,50.778 133.566,50.454 132.421,50.454 C131.256,50.454 130.37,50.748 129.764,51.333 C129.168,51.922 128.868,52.657 128.868,53.553 C128.868,54.352 129.107,55.036 129.586,55.603 C130.063,56.175 131.294,56.919 133.284,57.824 C135.265,58.729 136.599,59.495 137.272,60.108 C138.503,61.219 139.122,62.674 139.122,64.499 Z M117.229,57.064 C117.229,56.603 117.186,56.013 117.09,55.304 C116.997,54.595 116.801,53.87 116.493,53.135 C116.061,52.119 115.484,51.393 114.76,50.965 C114.033,50.53 113.242,50.316 112.382,50.316 C110.968,50.316 109.815,50.812 108.917,51.795 C107.808,52.999 107.257,54.754 107.257,57.064 L117.229,57.064 Z M121.021,59.139 C121.021,59.661 120.85,59.924 120.512,59.924 L107.257,59.924 L107.257,60.156 C107.257,62.65 107.931,64.588 109.285,65.976 C110.49,67.211 111.932,67.82 113.633,67.82 C114.521,67.82 115.356,67.693 116.121,67.428 C116.894,67.168 117.757,66.762 118.71,66.203 L119.262,65.976 C119.482,66.065 119.586,66.142 119.586,66.203 L120.422,68.277 L120.464,68.56 C120.464,68.679 120.346,68.825 120.119,68.978 C119.883,69.131 119.402,69.388 118.662,69.738 C117.923,70.092 117.138,70.375 116.31,70.592 C115.477,70.806 114.554,70.917 113.534,70.917 C110.822,70.917 108.58,70.101 106.796,68.465 C104.579,66.438 103.47,63.341 103.47,59.182 C103.47,55.518 104.322,52.649 106.031,50.573 C107.739,48.494 109.959,47.454 112.702,47.454 C115.047,47.454 116.909,48.181 118.295,49.626 C120.109,51.529 121.021,54.63 121.021,58.909 L121.021,59.139 Z M97.695,69.721 C97.695,70.088 97.512,70.267 97.142,70.267 L94.741,70.267 C94.374,70.267 94.185,70.088 94.185,69.721 L94.185,54.292 C94.185,53.243 94.049,52.461 93.772,51.93 C93.31,51.013 92.446,50.551 91.183,50.551 C90.106,50.551 88.966,50.855 87.766,51.47 C86.747,52 85.858,52.628 85.089,53.366 L85.089,69.721 C85.089,70.088 84.902,70.267 84.535,70.267 L82.135,70.267 C81.763,70.267 81.578,70.088 81.578,69.721 L81.578,53.135 C81.578,52.243 81.536,51.62 81.46,51.265 C81.388,50.916 81.239,50.5 81.025,50.04 L80.887,49.761 C80.764,49.548 80.695,49.386 80.676,49.28 C80.665,49.172 80.652,49.103 80.652,49.07 C80.652,48.984 80.683,48.916 80.743,48.886 C80.812,48.857 80.854,48.827 80.887,48.796 L83.059,47.595 C83.426,47.381 83.748,47.546 84.021,48.101 C84.181,48.379 84.326,48.771 84.467,49.28 C84.604,49.788 84.706,50.227 84.764,50.598 C85.748,49.736 86.84,49.023 88.045,48.472 C89.487,47.789 90.949,47.454 92.426,47.454 C94.741,47.454 96.278,48.285 97.051,49.95 C97.481,50.873 97.695,52.349 97.695,54.382 L97.695,69.721 Z M73.449,69.721 C73.449,70.088 73.263,70.267 72.894,70.267 L70.493,70.267 C70.123,70.267 69.939,70.088 69.939,69.721 L69.939,50.965 L66.337,50.965 C65.967,50.965 65.783,50.778 65.783,50.411 L65.783,48.652 C65.783,48.285 65.967,48.101 66.337,48.101 L72.846,48.101 C73.247,48.101 73.449,48.337 73.449,48.796 L73.449,69.721 Z M74.324,39.969 C74.324,40.772 74.048,41.449 73.496,42.005 C72.939,42.557 72.265,42.836 71.465,42.836 C70.662,42.836 69.985,42.557 69.432,42.005 C68.878,41.449 68.599,40.772 68.599,39.969 C68.599,39.173 68.878,38.497 69.432,37.942 C69.985,37.388 70.662,37.111 71.465,37.111 C72.265,37.111 72.939,37.388 73.496,37.942 C74.048,38.497 74.324,39.173 74.324,39.969 Z M62.733,64.499 C62.733,66.497 61.966,68.098 60.424,69.298 C59.042,70.375 57.344,70.917 55.346,70.917 C54.206,70.917 53.073,70.763 51.946,70.456 C50.824,70.148 49.878,69.807 49.108,69.44 C48.955,69.376 48.818,69.298 48.693,69.208 C48.446,69.021 48.325,68.858 48.325,68.701 L48.368,68.377 L49.244,66.527 C49.31,66.374 49.4,66.296 49.525,66.296 C49.68,66.331 49.815,66.36 49.938,66.39 C50.309,66.574 50.633,66.732 50.91,66.851 C51.526,67.159 52.246,67.416 53.079,67.612 C53.911,67.817 54.699,67.915 55.437,67.915 C57.96,67.915 59.224,66.809 59.224,64.588 C59.224,63.606 58.823,62.787 58.025,62.137 C57.532,61.744 56.455,61.155 54.79,60.386 C52.754,59.43 51.415,58.662 50.769,58.08 C49.568,56.996 48.973,55.569 48.973,53.785 C48.973,51.93 49.594,50.42 50.837,49.232 C52.09,48.046 53.73,47.454 55.761,47.454 C56.745,47.454 57.824,47.61 58.992,47.918 C59.334,48.011 59.762,48.156 60.285,48.357 C60.811,48.557 61.196,48.729 61.44,48.865 C61.687,49.002 61.825,49.138 61.857,49.28 C61.888,49.421 61.87,49.548 61.81,49.669 L61.027,51.384 C60.962,51.529 60.879,51.628 60.771,51.658 C60.662,51.688 60.592,51.706 60.564,51.706 L59.872,51.427 C58.451,50.778 57.175,50.454 56.035,50.454 C54.868,50.454 53.979,50.748 53.378,51.333 C52.782,51.922 52.479,52.657 52.479,53.553 C52.479,54.352 52.717,55.036 53.197,55.603 C53.67,56.175 54.908,56.919 56.894,57.824 C58.876,58.729 60.21,59.495 60.884,60.108 C62.114,61.219 62.733,62.674 62.733,64.499 Z M43.935,69.251 C43.935,69.376 43.812,69.499 43.564,69.624 L41.719,70.776 C41.321,71.024 40.933,70.822 40.563,70.178 L39.777,68.56 L39.642,68.193 C38.377,69.208 37.225,69.913 36.178,70.315 C35.13,70.716 34.007,70.917 32.807,70.917 C30.252,70.917 28.483,70.161 27.497,68.644 C26.817,67.594 26.48,66.044 26.48,63.973 L26.48,48.613 C26.48,48.3 26.589,48.123 26.803,48.054 L29.294,47.454 L29.663,47.454 C29.788,47.454 29.896,47.595 29.988,47.875 L29.988,64.077 C29.988,65.434 30.357,66.421 31.097,67.036 C31.713,67.56 32.529,67.82 33.547,67.82 C34.439,67.82 35.422,67.56 36.499,67.036 C37.36,66.637 38.209,66.104 39.039,65.459 L39.039,48.613 C39.039,48.3 39.149,48.123 39.363,48.054 L41.859,47.454 L42.229,47.454 C42.353,47.454 42.457,47.595 42.554,47.875 L42.554,65.331 C42.554,65.878 42.675,66.497 42.923,67.176 C43.012,67.389 43.141,67.663 43.313,67.988 C43.483,68.307 43.598,68.543 43.66,68.701 C43.721,68.858 43.812,69.039 43.935,69.251 Z M15.858,61.496 C15.858,59.652 15.332,58.217 14.288,57.201 C13.24,56.184 11.684,55.672 9.62,55.672 L5.743,55.672 L5.743,67.036 L9.854,67.036 C11.853,67.036 13.354,66.565 14.357,65.63 C15.356,64.69 15.858,63.311 15.858,61.496 Z M14.75,46.579 C14.75,44.606 14.18,43.268 13.039,42.557 C12.299,42.097 11.158,41.868 9.62,41.868 L5.743,41.868 L5.743,52.58 L8.654,52.58 C10.251,52.58 11.516,52.303 12.441,51.752 C13.979,50.825 14.75,49.103 14.75,46.579 Z M20.015,61.403 C20.015,63.034 19.69,64.511 19.044,65.836 C18.518,66.911 17.828,67.808 16.966,68.512 C16.104,69.226 15.063,69.691 13.847,69.926 C12.631,70.157 10.977,70.267 8.882,70.267 L2.509,70.267 C2.14,70.267 1.956,70.088 1.956,69.721 L1.956,39.186 C1.956,38.817 2.14,38.633 2.509,38.633 L9.718,38.633 C12.267,38.633 14.224,38.986 15.58,39.697 C17.797,40.833 18.904,42.992 18.904,46.162 C18.904,47.857 18.535,49.326 17.797,50.573 C17.058,51.82 15.902,52.862 14.333,53.691 C15.963,54.092 17.271,54.861 18.258,55.997 C19.43,57.354 20.015,59.156 20.015,61.403 Z M140.788,10.474 L134.736,31.534 C134.643,31.841 134.459,31.996 134.18,31.996 L132.331,31.996 C132.059,31.996 131.87,31.841 131.782,31.534 L128.129,17.543 C127.973,16.958 127.852,16.403 127.759,15.877 C127.668,15.356 127.623,14.741 127.623,14.035 C127.467,14.89 127.341,15.552 127.228,16.018 C127.122,16.479 126.988,16.972 126.835,17.496 L122.497,31.534 C122.467,31.658 122.419,31.767 122.361,31.859 C122.294,31.951 122.173,31.996 121.989,31.996 L120.14,31.996 C119.893,31.996 119.727,31.841 119.637,31.534 L114.418,10.612 L114.324,10.195 C114.324,10.046 114.418,9.937 114.597,9.877 L116.909,9.228 C117.125,9.167 117.278,9.184 117.372,9.276 L117.51,9.644 L120.832,24.792 L121.292,27.332 C121.48,26.38 121.604,25.799 121.664,25.598 C121.729,25.398 121.801,25.13 121.898,24.792 L126.281,9.968 C126.375,9.657 126.563,9.508 126.835,9.508 L128.689,9.508 C128.808,9.536 128.924,9.568 129.032,9.6 C129.138,9.63 129.205,9.754 129.235,9.968 L133.027,25.393 L133.353,27.191 C133.383,26.762 133.438,26.38 133.536,26.039 C133.627,25.699 133.685,25.485 133.72,25.393 L137.64,9.644 C137.738,9.276 137.939,9.138 138.246,9.228 L140.551,9.877 C140.8,9.937 140.876,10.137 140.788,10.474 Z M106.56,20.589 C106.56,17.602 106.104,15.38 105.178,13.916 C104.255,12.455 102.914,11.72 101.154,11.72 C98.943,11.72 97.405,12.893 96.543,15.234 C96.021,16.648 95.758,18.437 95.758,20.589 C95.758,23.579 96.218,25.799 97.142,27.264 C98.063,28.725 99.403,29.455 101.154,29.455 C103.374,29.455 104.916,28.287 105.779,25.947 C106.306,24.532 106.56,22.744 106.56,20.589 Z M110.352,20.589 C110.352,24.778 109.32,27.885 107.257,29.92 C105.621,31.521 103.593,32.32 101.154,32.32 C98.754,32.32 96.739,31.521 95.11,29.92 C93.015,27.853 91.968,24.747 91.968,20.589 C91.968,16.403 92.997,13.294 95.061,11.258 C96.696,9.657 98.729,8.859 101.154,8.859 C103.563,8.859 105.578,9.657 107.209,11.258 C109.308,13.322 110.352,16.434 110.352,20.589 Z M87.904,29.965 C87.904,30.088 87.789,30.225 87.557,30.381 C87.328,30.535 86.84,30.787 86.103,31.143 C85.363,31.494 84.578,31.782 83.748,31.996 C82.917,32.211 81.988,32.32 80.978,32.32 C78.453,32.32 76.418,31.581 74.881,30.101 C72.939,28.222 71.971,25.207 71.971,21.05 C71.971,17.109 72.924,14.035 74.838,11.816 C76.531,9.845 78.649,8.859 81.211,8.859 C83.365,8.859 85.346,9.508 87.165,10.799 C87.6,11.105 87.852,11.338 87.925,11.491 C88.003,11.647 88.003,11.799 87.904,11.953 L86.795,14.035 L86.568,14.216 C86.473,14.216 86.286,14.112 86.012,13.891 C85.21,13.249 84.455,12.759 83.748,12.437 C83.041,12.113 82.288,11.953 81.485,11.953 C79.605,11.953 78.18,12.682 77.213,14.148 C76.242,15.608 75.756,17.756 75.756,20.589 C75.756,23.053 76.018,24.916 76.544,26.179 C77.374,28.211 78.881,29.225 81.067,29.225 C81.988,29.225 82.887,29.072 83.748,28.765 C84.271,28.579 85.073,28.195 86.148,27.611 L86.704,27.379 C86.918,27.47 87.028,27.548 87.028,27.611 L87.856,29.687 L87.904,29.965 Z M67.491,25.899 C67.491,27.902 66.719,29.506 65.182,30.707 C63.795,31.782 62.102,32.32 60.099,32.32 C58.964,32.32 57.832,32.165 56.704,31.859 C55.582,31.549 54.639,31.212 53.866,30.842 C53.713,30.783 53.574,30.707 53.453,30.615 C53.204,30.425 53.081,30.257 53.081,30.101 L53.124,29.779 L54.005,27.929 C54.067,27.781 54.161,27.702 54.281,27.702 C54.438,27.729 54.573,27.761 54.699,27.794 C55.066,27.977 55.391,28.13 55.67,28.255 C56.279,28.564 57.007,28.82 57.837,29.016 C58.672,29.218 59.457,29.317 60.197,29.317 C62.719,29.317 63.981,28.211 63.981,25.991 C63.981,25.007 63.581,24.193 62.781,23.546 C62.291,23.145 61.209,22.56 59.548,21.789 C57.513,20.838 56.176,20.064 55.529,19.481 C54.329,18.406 53.73,16.972 53.73,15.184 C53.73,13.34 54.35,11.821 55.598,10.635 C56.846,9.453 58.483,8.859 60.514,8.859 C61.5,8.859 62.58,9.015 63.75,9.32 C64.087,9.412 64.52,9.557 65.046,9.757 C65.566,9.959 65.949,10.128 66.195,10.266 C66.442,10.407 66.583,10.544 66.613,10.685 C66.646,10.821 66.629,10.954 66.565,11.077 L65.783,12.783 C65.72,12.939 65.635,13.029 65.529,13.061 C65.418,13.092 65.351,13.108 65.317,13.108 L64.626,12.829 C63.212,12.185 61.934,11.861 60.793,11.861 C59.626,11.861 58.74,12.153 58.139,12.738 C57.54,13.322 57.238,14.06 57.238,14.955 C57.238,15.754 57.477,16.443 57.955,17.009 C58.431,17.579 59.661,18.318 61.646,19.225 C63.637,20.139 64.968,20.894 65.643,21.512 C66.875,22.621 67.491,24.085 67.491,25.899 Z M45.324,20.589 C45.324,17.602 44.86,15.38 43.935,13.916 C43.012,12.455 41.672,11.72 39.917,11.72 C37.697,11.72 36.16,12.893 35.299,15.234 C34.777,16.648 34.515,18.437 34.515,20.589 C34.515,23.579 34.974,25.799 35.899,27.264 C36.822,28.725 38.163,29.455 39.917,29.455 C42.133,29.455 43.673,28.287 44.536,25.947 C45.057,24.532 45.324,22.744 45.324,20.589 Z M49.108,20.589 C49.108,24.778 48.076,27.885 46.011,29.92 C44.383,31.521 42.353,32.32 39.917,32.32 C37.517,32.32 35.498,31.521 33.865,29.92 C31.771,27.853 30.727,24.747 30.727,20.589 C30.727,16.403 31.758,13.294 33.82,11.258 C35.454,9.657 37.485,8.859 39.917,8.859 C42.321,8.859 44.337,9.657 45.971,11.258 C48.063,13.322 49.108,16.434 49.108,20.589 Z M24.91,31.12 C24.91,31.489 24.723,31.672 24.353,31.672 L21.676,31.672 C21.305,31.672 21.123,31.489 21.123,31.12 L20.384,7.38 C20.384,6.979 20.384,6.579 20.384,6.182 C20.384,5.781 20.397,5.38 20.429,4.977 C20.211,5.904 19.996,6.811 19.782,7.706 L14.192,23.775 C14.068,24.113 13.843,24.285 13.498,24.285 L12.116,24.285 C11.775,24.285 11.547,24.113 11.424,23.775 L6.066,7.706 C5.913,7.273 5.797,6.811 5.721,6.318 C5.644,5.825 5.574,5.38 5.511,4.977 C5.482,5.197 5.464,5.551 5.464,6.041 L5.464,7.38 L4.771,31.12 C4.771,31.489 4.588,31.672 4.22,31.672 L1.542,31.672 C1.172,31.672 0.984,31.489 0.984,31.12 L2.741,0.592 C2.741,0.222 2.924,0.036 3.292,0.036 L6.294,0.036 C6.542,0.036 6.711,0.222 6.808,0.592 L12.254,16.447 C12.346,16.725 12.463,17.154 12.6,17.756 C12.735,18.358 12.823,18.864 12.855,19.294 C13.008,18.527 13.129,17.957 13.225,17.574 C13.316,17.185 13.427,16.817 13.55,16.447 L19.044,0.592 C19.164,0.222 19.334,0.036 19.554,0.036 L22.552,0.036 C22.921,0.036 23.106,0.222 23.106,0.592 L24.91,31.12 Z" id="Fill-14"></path>
        </g>
    </g>
</svg>