<svg id="Layer_1" data-name="Layer 1" xmlns="http://www.w3.org/2000/svg" viewBox="0 0 96 96" fill="#fff">
  <path d="M96,96H0V0h96V96z M46.5,42.2c0-1.7-0.3-3.3-1-4.6c-0.7-1.3-1.6-2.5-2.8-3.4c-1.2-0.9-2.5-1.6-4-2.1
  c-1.5-0.5-3.1-0.7-4.7-0.7c-1.6,0-3.2,0.2-4.7,0.7c-1.5,0.4-2.8,1.1-4,2c-1.2,0.9-2.1,2-2.8,3.3c-0.7,1.3-1,2.8-1,4.6v11.9
  c0,1.8,0.3,3.3,1,4.6c0.7,1.3,1.6,2.4,2.7,3.3c1.1,0.9,2.5,1.6,4,2.1c1.5,0.5,3.1,0.7,4.8,0.7c1.7,0,3.3-0.2,4.8-0.7
  c1.5-0.5,2.8-1.1,4-2.1c1.1-0.9,2-2,2.7-3.3c0.7-1.3,1-2.9,1-4.6V42.2z M40,52.8c0,1.1-0.2,2-0.5,2.7c-0.3,0.8-0.8,1.4-1.4,1.8
  c-0.6,0.5-1.2,0.8-1.9,1c-0.7,0.2-1.4,0.3-2.2,0.3c-0.8,0-1.5-0.1-2.2-0.3c-0.7-0.2-1.4-0.5-1.9-1c-0.6-0.5-1-1.1-1.4-1.8
  c-0.3-0.8-0.5-1.7-0.5-2.7v-9.5c0-1.1,0.2-2,0.5-2.7c0.3-0.7,0.8-1.3,1.4-1.8c0.6-0.5,1.2-0.8,1.9-1c0.7-0.2,1.5-0.3,2.2-0.3
  c0.8,0,1.5,0.1,2.2,0.3c0.7,0.2,1.3,0.6,1.9,1c0.6,0.5,1,1.1,1.4,1.8c0.3,0.7,0.5,1.6,0.5,2.7V52.8z M73.9,60V46.3H62.7v5.5h4.7
  v5.4c-0.7,0.6-1.5,1-2.2,1.2c-0.7,0.2-1.4,0.3-2.1,0.3c-0.8,0-1.5-0.1-2.2-0.3c-0.7-0.2-1.4-0.6-1.9-1c-0.6-0.5-1-1.1-1.4-1.8
  c-0.3-0.7-0.5-1.6-0.5-2.7v-9.5c0-1.1,0.2-2,0.6-2.7c0.4-0.8,0.9-1.4,1.4-1.8c0.6-0.5,1.2-0.8,2-1c0.7-0.2,1.5-0.3,2.2-0.3
  c1.1,0,2.3,0.2,3.5,0.5c1.2,0.3,2.3,0.9,3.3,1.8l3.2-5c-1.3-1.1-2.8-1.9-4.6-2.4c-1.8-0.5-3.6-0.8-5.5-0.8
  c-1.6,0-3.2,0.2-4.7,0.7c-1.5,0.5-2.9,1.1-4,2c-1.2,0.9-2.1,2-2.8,3.4c-0.7,1.3-1.1,2.9-1.1,4.6v12c0,1.8,0.4,3.3,1.1,4.6
  c0.7,1.3,1.7,2.4,2.9,3.3c1.2,0.9,2.5,1.5,4,2c1.5,0.4,3,0.7,4.5,0.7c0.8,0,1.8-0.1,2.7-0.2c1-0.2,1.9-0.4,2.9-0.8
  c0.9-0.4,1.9-0.8,2.7-1.4C72.4,61.6,73.2,60.9,73.9,60z"/>
</svg>
