<svg xmlns="http://www.w3.org/2000/svg" viewBox="0 0 355.39 355.39"><defs><style>.cls-1{fill:#f2f2f2;}.cls-2{fill:#3f09c6;}</style></defs><g id="White_Back" data-name="White Back"><rect class="cls-1" x="2" y="1" width="352" height="352"/></g><g id="Layer_1" data-name="Layer 1"><path class="cls-2" d="M.11-.44V355.44H356V-.44ZM291,176l-41.3,86a7,7,0,0,1-6.32,4h0A7.06,7.06,0,0,1,237,262L154.2,93.24,85.47,240,186,198.83a7,7,0,0,1,5.34,13l-117.22,48a7,7,0,0,1-9-9.49L147.68,74a7,7,0,0,1,6.31-4h.06a7,7,0,0,1,6.32,3.94l82.93,169,27.89-58L235.5,196.41A7,7,0,1,1,231.13,183l51.36-16.75A7,7,0,0,1,291,176Z"/></g></svg>