<svg width="581" height="260" viewBox="0 0 581 260" xmlns="http://www.w3.org/2000/svg"><path fill="#fff" d="M241.497 145.254c-.934.28-1.962.562-2.99.562-1.776 0-3.27-.75-3.27-3.272V126.47c0-13.552-8.038-19.626-20.748-19.626-7.2 0-13.65 1.775-17.2 2.99v9.16c4.02-1.776 9.53-3.458 16.17-3.458 7.66 0 11.772 3.925 11.772 9.533v1.583c-3.552-.747-7.85-1.308-11.682-1.308-9.345 0-20 3.55-20 15.046 0 9.254 7.57 13.74 15.7 13.74 7.01 0 12.526-2.24 16.918-5.794 1.59 3.645 4.86 5.234 8.973 5.234 2.244 0 4.487-.373 6.356-1.12v-7.2zm-16.26-4.204c-3.553 3.55-8.226 5.327-12.992 5.327-4.486 0-8.41-2.242-8.41-6.636 0-5.602 5.98-7.38 11.68-7.38 3.178 0 7.01.56 9.72 1.12v7.57zm44.58 13.083c5.7 0 10.56-1.028 14.86-3.084v-9.256c-3.553 2.055-8.32 3.457-13.085 3.457-8.037 0-15.794-4.58-15.794-14.764 0-10.563 8.038-14.768 15.98-14.768 4.58 0 9.16 1.4 12.43 3.737V110.3c-3.924-2.336-8.784-3.456-13.83-3.456-11.964 0-24.767 7.29-24.767 24.018 0 15.98 12.247 23.27 24.21 23.27zm41.12-28.785c-9.346 0-20 3.55-20 15.047 0 9.253 7.57 13.738 15.7 13.738 7.01 0 12.525-2.242 16.917-5.794 1.59 3.64 4.86 5.23 8.973 5.23 2.242 0 4.485-.376 6.354-1.12v-7.198c-.93.28-1.96.562-2.99.562-1.77 0-3.27-.75-3.27-3.272V126.47c0-13.55-8.033-19.625-20.743-19.625-7.196 0-13.645 1.775-17.197 2.99v9.16c4.02-1.776 9.532-3.458 16.167-3.458 7.663 0 11.776 3.925 11.776 9.533v1.588c-3.552-.75-7.85-1.31-11.682-1.31zm11.682 15.702c-3.557 3.55-8.23 5.327-12.996 5.327-4.486 0-8.41-2.242-8.41-6.636 0-5.602 5.98-7.38 11.68-7.38 3.178 0 7.01.56 9.72 1.12v7.57zm20.37-10.56c0 12.895 8.69 23.643 22.243 23.643 8.41 0 13.738-3.925 17.196-8.317v7.102h8.972v-65.42h-10v26.355c-3.085-3.55-8.318-7.01-16.168-7.01-13.552 0-22.243 10.75-22.243 23.646zm38.317-5.516v10.935c-2.15 4.95-7.29 9.44-14.3 9.44-8.037 0-13.925-6.08-13.925-14.86 0-8.79 5.888-14.866 13.925-14.866 7.01 0 12.15 4.487 14.3 9.346zm45.234 29.16c6.263 0 11.964-1.12 16.076-3.085v-8.6c-3.833 1.87-8.786 3.175-14.207 3.175-8.225 0-16.075-3.365-17.197-11.403h33.738c2.898-12.99-3.27-27.383-21.12-27.383-10.374 0-22.71 7.383-22.71 23.645 0 15.793 11.68 23.643 25.42 23.643zm-2.24-38.974c9.814 0 12.244 7.666 11.683 11.59h-24.86c.374-7.57 6.45-11.59 13.178-11.59zm91.4 10v27.76h10v-28.04c0-9.252-5.14-18.036-17.01-18.036-6.54 0-11.772 3.27-15.7 7.196-2.615-4.393-7.29-7.196-14.02-7.196-7.29 0-12.52 4.112-14.95 6.822v-5.607h-8.88v44.854h10v-30.28c2.338-2.99 6.45-6.916 11.87-6.916s8.88 3.645 8.88 9.44v27.756h10V124.88c0-1.027-.095-2.056-.188-3.083 2.336-2.804 6.168-6.074 11.12-6.074 5.423 0 8.88 3.644 8.88 9.438zm64.583-17.1h-10.466l-13.365 33.83-15.14-33.83h-10.655l21.308 45.233-.934 2.243c-2.614 7.01-6.26 10.467-11.12 10.467-1.493 0-3.082-.187-4.58-.654v8.502c1.965.468 3.927.748 5.89.748 6.82 0 13.175-3.923 18.035-15.604l21.028-50.935zM206.78 44.654c2.522-3.645 6.82-7.476 12.523-7.476 5.98 0 10.467 3.457 10.467 10.748v26.448h10V46.616c0-10.654-7.196-18.317-18.505-18.317-6.075 0-11.215 2.8-14.486 6.162V8.952h-10v65.42h10v-29.72zm50.467 16.075c0 10.466 6.73 14.765 15.42 14.765 4.394 0 8.692-.748 12.057-1.962v-8.598c-2.804 1.12-5.795 1.775-9.065 1.775-5.8 0-8.51-1.96-8.51-7.85V38.298h16.262v-8.784H267.15v-15.98l-9.906 2.43v13.55h-8.037V38.3h8.036v22.43zm48.967-16.637c2.336-2.99 6.448-6.916 11.87-6.916 5.42 0 8.877 3.645 8.877 9.44v27.756h10V46.336c0-1.028-.09-2.057-.182-3.084 2.337-2.804 6.168-6.074 11.12-6.074 5.422 0 8.88 3.645 8.88 9.44v27.756h10V46.337c0-9.253-5.14-18.037-17.01-18.037-6.542 0-11.776 3.27-15.7 7.196-2.617-4.393-7.29-7.196-14.02-7.196-7.29 0-12.522 4.112-14.952 6.822v-5.607h-8.878v44.86h10V44.092zm75.19-35.14h10v65.42h-10zM78.324 1.15L0 9.363v143.56l78.324 46.604 78.324-46.604V9.363l-77.502-8.13-.823-.084zm68.08 145.946l-68.08 40.508-68.08-40.508v-58.84l67.79 40.344.112 7.312-46.504-27.677-.068 7.098 46.687 28.06.12 7.506-46.674-27.767-.068 7.098 46.687 28.06 47.134-28.202v-7.13l-.06.033V99.808l21-12.542v59.83zm-.056-67.465L127.72 90.61l-8.597 5.065L78.12 71.28l-.068 7.098 35.048 20.84-.31.183-.756.448-4.98 2.934L78.12 85.565l-.067 7.1 22.84 13.58-5.39 3.604-.13.08L78.12 99.763l-.067 7.098 11.32 6.666-11.532 6.923L10.4 80.36 77.94 39.76v.007l68.41 39.866zm.053-7.14L77.96 32.14v-.01l-.008.006-.01-.005v.01L10.247 72.45V18.59l68.08-7.138 68.078 7.137v53.9zm66.874 137.238v-17.54h-3.355l-9.37 11.475V192.19h-3.9v17.54h3.354l9.368-11.474v11.474zm17.545 0h3.9v-17.54h-3.904v7.052h-8.748v-7.053h-3.902v17.54h3.9v-7.05h8.75zm6.975-17.54v3.435h6.05v14.108h3.903v-14.11h6.013v-3.433zm33.654 16.808v-3.36c-1.495.732-3.427 1.243-5.54 1.243-3.21 0-6.27-1.318-6.71-4.46h13.16c1.13-5.08-1.277-10.707-8.24-10.707-4.047 0-8.86 2.89-8.86 9.248 0 6.176 4.56 9.246 9.917 9.246 2.44.002 4.665-.438 6.27-1.206zm-7.146-14.032c3.828 0 4.776 2.997 4.557 4.533h-9.7c.147-2.96 2.516-4.533 5.14-4.533zm30.854 5.994c0-5.043-3.426-9.245-8.677-9.245-3.283 0-5.36 1.538-6.745 3.22v-2.74h-3.464v25.577h3.9v-10.304c1.205 1.388 3.246 2.74 6.31 2.74 5.25 0 8.675-4.202 8.675-9.246zm-14.983 2.12V198.8c.84-1.902 2.88-3.656 5.576-3.656 3.17 0 5.43 2.377 5.43 5.81s-2.26 5.812-5.432 5.812c-2.697.002-4.738-1.752-5.577-3.69zm33.695 2.594v-6.284c0-5.298-3.137-7.674-8.096-7.674-2.806 0-5.322.697-6.707 1.17v3.584a15.557 15.557 0 0 1 6.308-1.352c2.99 0 4.593 1.536 4.593 3.728v.623c-1.385-.29-3.063-.513-4.557-.513-3.643 0-7.8 1.39-7.8 5.885 0 3.617 2.952 5.37 6.124 5.37 2.735 0 4.885-.877 6.598-2.265.62 1.422 1.897 2.045 3.5 2.045.878 0 1.75-.15 2.48-.44v-2.815c-.364.11-.766.22-1.165.22-.694 0-1.276-.293-1.276-1.28zm-3.9-.584c-1.387 1.39-3.21 2.085-5.07 2.085-1.75 0-3.28-.876-3.28-2.594 0-2.19 2.332-2.886 4.556-2.886 1.24 0 2.735.22 3.792.438v2.958zm19.22-4.202l6.34-8.697h-4.446l-5.03 6.942h-2.88v-6.946h-3.9v17.54h3.9v-7.272h2.806l5.76 7.272h4.483zm7.776-5.263h6.052v14.107h3.9v-14.11h6.015v-3.434h-15.967zm22.94-3.433h-3.9v17.54h3.353l9.366-11.474v11.474h3.9v-17.54h-3.354l-9.368 11.475zm17.618 0v17.54h10.28c4.047 0 5.76-2.12 5.76-4.825 0-2.153-1.347-3.54-2.99-4.05 1.495-.66 2.48-2.047 2.48-3.984 0-2.74-2.004-4.676-5.542-4.676h-9.985zm9.333 14.582h-5.43v-4.495h5.504c1.35 0 2.7.473 2.7 2.265 0 1.676-1.168 2.226-2.77 2.226zm2.26-9.394c0 1.57-1.093 2.12-2.478 2.12h-5.215v-4.35h5.213c1.2 0 2.477.514 2.477 2.23zm21.042-5.19v7.053h-8.75v-7.052h-3.9v17.54h3.9v-7.05h8.75v7.05h3.9v-17.54zm27.535 0h3.9v17.54h-3.9zm-10.062 5.848h-4.776v-5.847h-3.9v17.54h8.676c4.41 0 6.926-2.558 6.926-5.848 0-3.327-2.52-5.85-6.93-5.85zm-.765 8.587h-4.01v-5.515h4.01c2.294 0 3.717.948 3.717 2.776 0 1.79-1.423 2.74-3.718 2.74zm34.72-.985c-1.495.732-3.427 1.243-5.54 1.243-3.21 0-6.27-1.316-6.71-4.46h13.16c1.133-5.077-1.274-10.705-8.24-10.705-4.044 0-8.855 2.89-8.855 9.248 0 6.175 4.557 9.245 9.915 9.245 2.44 0 4.663-.44 6.27-1.207v-3.36zm-7.146-10.672c3.828 0 4.776 2.997 4.557 4.533h-9.696c.145-2.96 2.514-4.534 5.14-4.534zm-249.41 38.545c-4.886 0-9.48 3.18-9.48 9.246 0 6.065 4.594 9.245 9.48 9.245 4.922 0 9.477-3.18 9.477-9.244 0-6.065-4.555-9.245-9.478-9.245zm0 14.91c-3.28 0-5.54-2.23-5.54-5.664s2.257-5.664 5.54-5.664c3.245 0 5.504 2.23 5.504 5.663 0 3.435-2.26 5.664-5.505 5.664zm17.18 3.106v-7.05h8.75v7.05h3.9v-17.54h-3.9v7.052h-8.75v-7.052h-3.9v17.54zm84.41 0v-7.05h8.748v7.05h3.904v-17.54h-3.9v7.052h-8.75v-7.052h-3.9v17.54zm-67.667-2.997c-.363 0-.727-.075-1.128-.22v3.07c.873.33 1.677.473 2.403.473 4.666 0 5.98-6.068 6.49-14.546h5.905v14.215h3.9v-17.54H243.04c-.327 8.696-1.13 14.543-4.084 14.543zm37.38-1.06v-6.285c0-5.295-3.135-7.67-8.094-7.67-2.805 0-5.32.693-6.706 1.17v3.58a15.557 15.557 0 0 1 6.308-1.35c2.99 0 4.593 1.533 4.593 3.725v.623c-1.385-.292-3.063-.514-4.557-.514-3.65 0-7.806 1.39-7.806 5.884 0 3.617 2.953 5.37 6.125 5.37 2.734 0 4.884-.876 6.6-2.264.62 1.423 1.893 2.046 3.5 2.046.874 0 1.75-.15 2.48-.44v-2.814c-.368.11-.77.22-1.17.22-.693 0-1.275-.294-1.275-1.28zm-3.9-.586c-1.385 1.39-3.207 2.086-5.07 2.086-1.747 0-3.28-.877-3.28-2.596 0-2.194 2.334-2.888 4.558-2.888 1.24 0 2.735.22 3.792.437v2.96zm22.03-6.832v11.475h3.9v-17.54h-3.355l-9.365 11.475v-11.475h-3.902v17.54h3.356zm30.02.82h13.27v3.508h-13.27zm22.034-6.885h-3.9v17.54h3.9v-7.273h2.806l5.762 7.27h4.483l-7.035-8.844 6.342-8.696h-4.45l-5.03 6.943h-2.88zm23.49 13.228l-5.906-13.227h-4.158l8.314 17.688-.365.875c-1.02 2.744-2.443 4.094-4.34 4.094-.58 0-1.2-.07-1.783-.254v3.325a9.86 9.86 0 0 0 2.298.29c2.66 0 5.142-1.534 7.038-6.103l8.202-19.914h-4.085l-5.212 13.23zm22.43-13.702c-3.28 0-5.36 1.535-6.744 3.216v-2.74h-3.464v25.577h3.9v-10.3c1.203 1.39 3.244 2.74 6.307 2.74 5.25 0 8.673-4.2 8.673-9.244s-3.426-9.246-8.677-9.246zm-.73 15.056c-2.698 0-4.738-1.755-5.577-3.69V240.6c.84-1.902 2.88-3.656 5.576-3.656 3.17 0 5.43 2.378 5.43 5.81s-2.26 5.814-5.434 5.814zm16.09-5.81c0-4.13 3.135-5.775 6.234-5.775 1.787 0 3.574.543 4.85 1.46v-3.58c-1.534-.916-3.43-1.355-5.397-1.355-4.666 0-9.66 2.85-9.66 9.393 0 6.247 4.775 9.097 9.44 9.097 2.225 0 4.12-.402 5.796-1.208v-3.618c-1.385.804-3.243 1.35-5.104 1.35-3.137 0-6.16-1.79-6.16-5.773zm33.912-8.77h3.9v17.54h-3.9zm-10.062 5.846h-4.775v-5.847h-3.9v17.54h8.676c4.41 0 6.928-2.558 6.928-5.848 0-3.324-2.516-5.846-6.926-5.846zm-.764 8.587h-4.01V242.9h4.01c2.295 0 3.718.948 3.718 2.776 0 1.79-1.423 2.74-3.718 2.74zm-146.155-21.56v3.18c1.606 1.097 3.357 1.498 5.324 1.498 1.97 0 3.718-.4 5.325-1.496v-3.18c-1.86 1.17-3.5 1.535-5.326 1.535-1.822 0-3.46-.367-5.322-1.536z"/></svg>